<?xml version="1.0" encoding="UTF-8"?>
<svg width="566px" height="455px" viewBox="0 0 566 455" version="1.1" xmlns="http://www.w3.org/2000/svg" xmlns:xlink="http://www.w3.org/1999/xlink">
    <!-- Generator: Sketch 58 (84663) - https://sketch.com -->
    <title>Combined ShapeHD</title>
    <desc>Created with Sketch.</desc>
    <g id="Coffrets" stroke="none" stroke-width="1" fill="none" fill-rule="evenodd">
        <g id="Trio-de-roses" transform="translate(-96.000000, -110.000000)" fill="#b2bec3">
            <g id="Combined-Shape">
                <g transform="translate(0.000000, -27.000000)">
                    <path d="M379,137 C379.811795,137 380.62015,137.371499 380.967571,138.117938 C390.888162,158.662471 407.98002,171.999865 425.022446,186.255788 L426.404014,187.413847 C440.686102,199.401583 454.600131,214.375073 456.237481,233.510733 L456.237481,233.510733 L456.25124,233.500413 L456.25124,233.517612 C470.939226,221.144618 491.368254,220.3913 509.943225,222.018329 C532.707884,223.99622 554.805219,227.002613 576.930073,219.287121 C577.700591,219.005056 578.536464,219.314639 579.110913,219.889087 C579.537449,220.315624 579.819513,220.886632 579.819513,221.4714 C579.819513,221.670909 579.785115,221.873857 579.712879,222.069927 C575.90845,232.977562 574.711396,243.871439 574.711396,254.84787 C574.711396,266.137325 575.980686,277.512775 576.981671,289.056775 C577.363489,293.415014 577.614595,297.876446 577.614595,302.341319 C577.614595,316.905472 574.952183,331.507463 565.482388,342.74876 L565.482388,342.74876 L565.499587,342.74876 L565.489267,342.762519 C584.624927,344.399869 599.598417,358.313898 611.586153,372.595986 C626.284459,390.090857 639.782271,407.843714 660.882062,418.032429 C661.628501,418.37641 662,419.188205 662,420 C662,420.811795 661.628501,421.62359 660.882062,421.967571 C640.337529,431.888162 627.000135,448.98002 612.744212,466.022446 L611.586153,467.404014 C599.598417,481.689542 584.624927,495.600131 565.489267,497.237481 L565.489267,497.237481 L565.499587,497.25124 L565.482388,497.25124 C574.952183,508.495977 577.614595,523.094528 577.614595,537.658681 C577.614595,542.120114 577.363489,546.584986 576.981671,550.943225 C575.980686,562.487225 574.711396,573.859235 574.711396,585.15213 C574.711396,596.125122 575.90845,607.025878 579.712879,617.930073 C579.785115,618.126143 579.819513,618.329091 579.819513,618.5286 C579.819513,619.113368 579.537449,619.684376 579.110913,620.110913 C578.536464,620.685361 577.700591,620.994944 576.930073,620.712879 C554.805219,612.997387 532.707884,616.00378 509.943225,617.981671 C491.368254,619.605261 470.939226,618.855382 456.25124,606.482388 L456.25124,606.482388 L456.25124,606.499587 L456.237481,606.489267 C454.600131,625.624927 440.686102,640.598417 426.404014,652.586153 C408.909143,667.284459 391.156286,680.782271 380.967571,701.882062 C380.62015,702.628501 379.811795,703 379,703 C378.188205,703 377.37641,702.628501 377.032429,701.882062 C367.111838,681.337529 350.01998,668.000135 332.977554,653.744212 L331.595986,652.586153 C317.310458,640.598417 303.399869,625.624927 301.762519,606.489267 L301.762519,606.489267 L301.74876,606.499587 L301.74876,606.482388 C287.057334,618.855382 266.631746,619.605261 248.056775,617.981671 C225.292116,616.00378 203.194781,612.997387 181.069927,620.712879 C180.299409,620.994944 179.463536,620.685361 178.889087,620.110913 C178.462551,619.684376 178.180487,619.113368 178.180487,618.5286 C178.180487,618.329091 178.214885,618.126143 178.287121,617.930073 C182.09155,607.022438 183.288604,596.125122 183.288604,585.15213 C183.288604,573.859235 182.019314,562.487225 181.018329,550.943225 C180.636511,546.584986 180.385405,542.123554 180.385405,537.658681 C180.385405,523.097968 183.047817,508.492537 192.517612,497.25124 L192.517612,497.25124 L192.500413,497.25124 L192.510733,497.237481 C173.375073,495.600131 158.401583,481.689542 146.413847,467.404014 C131.715541,449.909143 118.217729,432.156286 97.1179381,421.967571 C96.3714994,421.62359 96,420.811795 96,420 C96,419.188205 96.3714994,418.37641 97.1179381,418.032429 C117.662471,408.111838 130.999865,391.01998 145.255788,373.977554 L146.413847,372.595986 C158.401583,358.313898 173.375073,344.399869 192.510733,342.762519 L192.510733,342.762519 L192.500413,342.74876 L192.517612,342.74876 C183.047817,331.504023 180.385405,316.905472 180.385405,302.341319 C180.385405,297.879886 180.636511,293.415014 181.018329,289.056775 C182.019314,277.512775 183.288604,266.140765 183.288604,254.84787 C183.288604,243.874878 182.09155,232.974122 178.287121,222.069927 C178.214885,221.873857 178.180487,221.670909 178.180487,221.4714 C178.180487,220.886632 178.462551,220.315624 178.889087,219.889087 C179.463536,219.314639 180.299409,219.005056 181.069927,219.287121 C203.194781,227.002613 225.292116,223.99622 248.056775,222.018329 C266.631746,220.3913 287.057334,221.144618 301.74876,233.517612 L301.74876,233.517612 L301.74876,233.500413 L301.762519,233.510733 C303.399869,214.375073 317.310458,199.401583 331.595986,187.413847 C349.090857,172.715541 366.843714,159.217729 377.032429,138.117938 C377.37641,137.371499 378.188205,137 379,137 Z M446.547537,592.781627 C431.838912,598.13053 415.682128,599.417019 400.567605,595.650428 C392.53909,608.904014 386.051609,622.921237 381.191159,637.643621 C380.833418,638.720282 379.918429,639.260332 379,639.260332 C378.081571,639.260332 377.163142,638.720282 376.808841,637.643621 C371.948391,622.921237 365.46091,608.904014 357.428955,595.650428 C342.317872,599.417019 326.161088,598.13053 311.452463,592.781627 C310.293247,596.462223 309.766956,600.070583 309.766956,603.592948 C309.766956,622.075044 324.265753,638.190551 337.870199,650.106051 C353.610767,663.892807 369.213742,676.964083 379,695.59753 C388.782818,676.964083 404.385793,663.892807 420.129801,650.106051 C433.734247,638.190551 448.233044,622.078484 448.233044,603.592948 C448.233044,600.070583 447.706753,596.462223 446.547537,592.781627 Z M379,216.820777 C375.350362,228.68124 369.06583,239.530399 360.545423,248.707811 L360.545423,248.707811 L360.397511,248.835084 C359.929697,249.581522 359.080064,250.080295 357.982764,249.856707 C342.837284,246.695522 325.373371,249.939262 311.070644,256.007086 C296.668162,261.830684 282.024893,271.885246 273.552642,284.829249 C272.936917,285.761438 271.98065,286.012544 271.124137,285.816475 L271.124137,285.816475 L270.928068,285.830234 C258.410601,285.36586 246.295593,282.139318 235.33292,276.33292 C241.135879,287.299032 244.36242,299.414041 244.830234,311.928068 L244.830234,311.928068 L244.816475,312.124137 C244.854313,312.303007 244.878391,312.485317 244.878391,312.667627 C244.878391,313.362468 244.568808,314.06419 243.829249,314.552642 C230.885246,323.024893 220.830684,337.668162 215.007086,352.074084 C210.559413,362.562062 207.625255,374.749307 207.625255,386.475617 C207.625255,390.740981 208.013954,394.944428 208.856707,398.982764 C208.894545,399.161635 208.911744,399.333625 208.911744,399.498736 C208.911744,400.344929 208.461129,401.005372 207.835084,401.397511 L207.835084,401.397511 L207.707811,401.545423 C198.530399,410.06583 187.68124,416.353802 175.824217,420 C187.68124,423.649638 198.530399,429.93417 207.707811,438.454577 L207.707811,438.454577 L207.835084,438.602489 C208.461129,438.994628 208.911744,439.655071 208.911744,440.501264 C208.911744,440.666375 208.894545,440.838365 208.856707,441.017236 C208.013954,445.055572 207.625255,449.259019 207.625255,453.524383 C207.625255,465.250693 210.559413,477.441377 215.007086,487.925916 C220.830684,502.331838 230.885246,516.975107 243.829249,525.447358 C244.568808,525.93581 244.878391,526.637532 244.878391,527.332373 C244.878391,527.514683 244.854313,527.696993 244.816475,527.875863 L244.816475,527.875863 L244.830234,528.071932 C244.36242,540.585959 241.135879,552.704407 235.33292,563.66708 C246.295593,557.860682 258.410601,554.63758 270.928068,554.169766 L270.928068,554.169766 L271.124137,554.183525 C271.98065,553.987456 272.936917,554.235123 273.552642,555.170751 C282.024893,568.114754 296.668162,578.169316 311.070644,583.992914 C325.373371,590.060738 342.837284,593.304478 357.982764,590.143293 C359.080064,589.919705 359.929697,590.418478 360.397511,591.164916 L360.397511,591.164916 L360.545423,591.292189 C369.06583,600.469601 375.350362,611.31876 379,623.175783 C382.646198,611.31876 388.93417,600.469601 397.451138,591.292189 L397.451138,591.292189 L397.602489,591.164916 C398.070303,590.418478 398.919936,589.919705 400.017236,590.143293 C415.159277,593.304478 432.623189,590.060738 446.925916,583.992914 C461.331838,578.169316 475.975107,568.114754 484.447358,555.170751 C485.063083,554.235123 486.01935,553.987456 486.875863,554.183525 L486.875863,554.183525 L487.071932,554.169766 C499.585959,554.63758 511.700968,557.860682 522.66708,563.66708 C516.860682,552.704407 513.63414,540.585959 513.169766,528.071932 L513.169766,528.071932 L513.183525,527.875863 C513.142248,527.696993 513.121609,527.514683 513.121609,527.332373 C513.121609,526.637532 513.431192,525.93581 514.170751,525.447358 C527.114754,516.975107 537.169316,502.331838 542.992914,487.925916 C547.440587,477.437938 550.374745,465.250693 550.374745,453.524383 C550.374745,449.259019 549.986046,445.055572 549.143293,441.017236 C549.105455,440.838365 549.088256,440.666375 549.088256,440.501264 C549.088256,439.655071 549.538871,438.994628 550.164916,438.602489 L550.164916,438.602489 L550.28875,438.454577 C559.469601,429.93417 570.31876,423.649638 582.175783,420 C570.31876,416.353802 559.469601,410.06583 550.28875,401.545423 L550.28875,401.545423 L550.164916,401.397511 C549.538871,401.005372 549.088256,400.348369 549.088256,399.498736 C549.088256,399.333625 549.105455,399.161635 549.143293,398.982764 C549.986046,394.944428 550.374745,390.740981 550.374745,386.475617 C550.374745,374.749307 547.440587,362.558623 542.992914,352.074084 C537.169316,337.668162 527.114754,323.024893 514.170751,314.552642 C513.431192,314.06419 513.121609,313.362468 513.121609,312.667627 C513.121609,312.485317 513.142248,312.303007 513.183525,312.124137 L513.183525,312.124137 L513.169766,311.928068 C513.63414,299.414041 516.860682,287.299032 522.66708,276.33292 C511.700968,282.139318 499.585959,285.36586 487.071932,285.830234 L487.071932,285.830234 L486.875863,285.816475 C486.01935,286.012544 485.063083,285.761438 484.447358,284.829249 C475.975107,271.885246 461.331838,261.830684 446.925916,256.007086 C432.623189,249.939262 415.159277,246.695522 400.017236,249.856707 C398.919936,250.080295 398.070303,249.581522 397.602489,248.835084 L397.602489,248.835084 L397.451138,248.707811 C388.93417,239.530399 382.646198,228.68124 379,216.820777 Z M548.936904,494.409957 C542.318711,508.595731 531.806654,520.927448 518.456753,528.952523 C522.147669,544.00169 527.472494,558.500486 534.444987,572.345719 C534.630737,572.713779 534.713292,573.085278 534.713292,573.436139 C534.713292,574.058744 534.455307,574.626313 534.04253,575.04253 C533.392406,575.689214 532.363903,575.957519 531.345719,575.444987 C517.500486,568.472494 503.00169,563.151109 487.952523,559.456753 C479.927448,572.806654 467.592291,583.318711 453.409957,589.936904 C464.55494,611.325639 491.141227,613.214095 512.626276,611.793453 C533.505919,610.41065 553.780156,608.618509 573.875523,614.875523 C570.470111,603.933489 569.448488,592.939858 569.448488,581.818954 C569.448488,572.521149 570.163968,563.137349 570.793453,553.629716 C571.013601,550.286221 571.154633,546.818893 571.154633,543.306848 C571.154633,524.243424 566.999344,503.821276 548.936904,494.409957 Z M209.063096,494.409957 C191.000656,503.821276 186.845367,524.243424 186.845367,543.310288 C186.845367,546.818893 186.986399,550.286221 187.206547,553.629716 C187.836032,563.137349 188.551512,572.521149 188.551512,581.822394 C188.551512,592.939858 187.529889,603.933489 184.124477,614.875523 C204.219844,608.618509 224.494081,610.41065 245.370284,611.793453 C266.858773,613.214095 293.44506,611.325639 304.590043,589.936904 C290.404269,583.318711 278.072552,572.806654 270.047477,559.456753 C254.99831,563.151109 240.499514,568.472494 226.654281,575.444987 C225.636097,575.957519 224.607594,575.689214 223.95747,575.04253 C223.544693,574.626313 223.286708,574.058744 223.286708,573.436139 C223.286708,573.081838 223.369263,572.713779 223.555013,572.345719 C230.527506,558.500486 235.852331,544.00169 239.543247,528.952523 C226.193346,520.927448 215.681289,508.595731 209.063096,494.409957 Z M378.501719,238 C379.402557,238 380.306834,238.53982 380.688487,239.616023 C383.731395,248.132807 389.473379,254.937295 395.191295,261.752098 C410.151399,255.360212 428.061577,258.355012 442.753493,264.372118 C457.40071,270.506128 472.182022,281.054976 478.240332,296.152755 C487.104305,295.379127 495.975155,294.62613 504.148027,290.754551 C505.179522,290.262868 506.200701,290.520744 506.840227,291.160276 C507.249387,291.569439 507.500384,292.133328 507.500384,292.755669 C507.500384,293.109819 507.421302,293.48116 507.24251,293.852502 C503.370969,302.022013 502.621416,310.892947 501.847795,319.757005 C516.945432,325.81881 527.490741,340.600261 533.624693,355.244179 C537.279621,364.166689 539.820535,374.271989 539.820535,384.188181 C539.820535,390.600697 538.758096,396.930693 536.248127,402.810266 L537.416588,403.790216 C543.846094,409.175644 550.353761,414.44396 558.380554,417.309773 C559.460185,417.69143 560,418.595715 560,419.5 C560,420.404285 559.460185,421.30857 558.380554,421.690227 C550.353761,424.55604 543.846094,429.824356 537.416588,435.209784 L536.248127,436.189734 C538.758096,442.069307 539.820535,448.399303 539.820535,454.811819 C539.817097,464.724572 537.279621,474.833311 533.624693,483.755821 C527.490741,498.399739 516.945432,513.18119 501.847795,519.242995 C502.621416,528.103615 503.370969,536.974549 507.24251,545.147498 C507.421302,545.51884 507.500384,545.890181 507.500384,546.244331 C507.500384,546.866672 507.249387,547.430561 506.840227,547.839724 C506.200701,548.479256 505.179522,548.737132 504.148027,548.245449 C495.975155,544.37387 487.104305,543.620873 478.240332,542.847245 C472.182022,557.945024 457.40071,568.493872 442.753493,574.627882 C428.061577,580.644988 410.151399,583.639788 395.191295,577.247902 C389.473379,584.062705 383.731395,590.867193 380.688487,599.383977 C380.306834,600.46018 379.402557,601 378.501719,601 C377.597443,601 376.693166,600.46018 376.311513,599.383977 C373.268605,590.867193 367.530059,584.062705 361.808705,577.247902 C346.848601,583.639788 328.938423,580.644988 314.246507,574.627882 C299.59929,568.493872 284.821416,557.945024 278.759668,542.847245 C269.895695,543.620873 261.024845,544.37387 252.855411,548.245449 C251.820478,548.737132 250.799299,548.479256 250.159773,547.839724 C249.750613,547.430561 249.499616,546.866672 249.499616,546.240893 C249.499616,545.890181 249.578698,545.51884 249.75749,545.147498 C253.629031,536.974549 254.378584,528.103615 255.155643,519.242995 C240.054568,513.18119 229.509259,498.399739 223.375307,483.755821 C219.720379,474.833311 217.182903,464.728011 217.182903,454.811819 C217.182903,448.399303 218.245342,442.065868 220.755311,436.189734 C213.937135,430.471764 207.13615,424.729725 198.619446,421.690227 C197.539815,421.30857 197,420.404285 197,419.5 C197,418.595715 197.539815,417.69143 198.619446,417.309773 C207.13615,414.270275 213.937135,408.528236 220.755311,402.810266 C218.241904,396.930693 217.182903,390.600697 217.182903,384.188181 C217.182903,374.271989 219.720379,364.166689 223.375307,355.244179 C229.509259,340.600261 240.054568,325.81881 255.155643,319.757005 C254.378584,310.892947 253.629031,302.022013 249.75749,293.852502 C249.578698,293.48116 249.499616,293.109819 249.499616,292.759107 C249.499616,292.133328 249.750613,291.569439 250.159773,291.160276 C250.799299,290.520744 251.820478,290.262868 252.855411,290.754551 C261.024845,294.62613 269.895695,295.379127 278.759668,296.152755 C284.821416,281.054976 299.59929,270.506128 314.246507,264.372118 C328.938423,258.355012 346.848601,255.360212 361.808705,261.752098 C367.530059,254.937295 373.268605,248.132807 376.311513,239.616023 C376.693166,238.53982 377.597443,238 378.501719,238 Z M393.48933,529.279529 C391.746105,529.575227 389.992565,529.833103 388.239024,530.04628 C391.811433,533.890352 393.963817,538.851886 393.963817,544.20883 C393.963817,544.906814 393.925996,545.611675 393.850353,546.319975 C392.832612,556.174276 385.653412,563.628611 380.464996,571.560877 C379.987071,572.293245 379.244395,572.661148 378.501719,572.661148 C377.755605,572.661148 377.012929,572.293245 376.535004,571.560877 C371.346588,563.628611 364.170826,556.174276 363.149647,546.319975 C363.074004,545.611675 363.036183,544.906814 363.036183,544.20883 C363.036183,538.851886 365.188567,533.890352 368.760976,530.04628 C367.007435,529.833103 365.253895,529.575227 363.51067,529.279529 C356.878162,530.675498 353.979664,537.077699 353.979664,543.490215 C353.979664,543.913132 353.989979,544.336049 354.017485,544.758965 C354.464466,552.127342 358.215667,558.845871 362.351958,564.766704 C368.03893,572.922462 374.812408,580.479948 378.501719,589.632826 C382.187592,580.479948 388.96107,572.922462 394.648042,564.766704 C398.784333,558.845871 402.535534,552.127342 402.982515,544.758965 C403.010021,544.336049 403.020336,543.913132 403.020336,543.490215 C403.020336,537.077699 400.121838,530.675498 393.48933,529.279529 Z M297.725408,539.893705 C294.070481,540.959592 290.326157,541.606001 286.54745,542.063302 C288.111883,548.259202 293.29686,553.523311 297.897324,557.597751 C303.512091,562.555847 309.828274,565.901358 316.680834,568.744871 C323.536832,571.581507 330.368762,573.682337 337.847094,574.143075 C343.981047,574.514416 351.369983,574.462841 356.854094,571.189535 C354.505726,568.191297 352.31552,565.08647 350.486337,561.747836 C340.549609,563.996514 330.069628,562.854983 320.720852,558.997158 C311.378953,555.115265 303.161383,548.510201 297.725408,539.893705 Z M459.274592,539.893705 C453.838617,548.510201 445.621047,555.115265 436.279148,558.997158 C426.930372,562.854983 416.450391,563.996514 406.513663,561.747836 C404.68448,565.08647 402.494274,568.191297 400.145906,571.189535 C405.630017,574.462841 413.018953,574.514416 419.152906,574.143075 C426.631238,573.682337 433.463168,571.581507 440.319166,568.744871 C447.171726,565.901358 453.487909,562.555847 459.102676,557.597751 C463.70314,553.523311 468.888117,548.259202 470.45255,542.063302 C466.673843,541.606001 462.929519,540.959592 459.274592,539.893705 Z M378.501719,542.864436 C376.342458,542.864436 373.567739,543.696516 372.068634,545.312539 C370.982126,546.485015 370.579844,547.770957 370.579844,549.09472 C370.579844,550.69699 371.171234,552.354273 371.845143,553.932474 C373.52304,557.824682 375.947052,561.321481 378.501719,564.701375 C381.052948,561.321481 383.47696,557.824682 385.154857,553.932474 C385.832205,552.354273 386.420156,550.69699 386.420156,549.09472 C386.420156,547.770957 386.017874,546.485015 384.931366,545.312539 C383.432261,543.696516 380.657542,542.864436 378.501719,542.864436 Z M411.437329,524.685898 C408.958305,525.53517 406.448335,526.301921 403.921175,526.993029 C408.841402,532.074905 411.224153,538.332696 411.224153,544.985896 C411.224153,549.084405 410.319877,553.330763 408.556022,557.549614 C412.444755,558.323242 416.412569,558.53642 420.346,558.226969 C420.1844,546.364673 417.155245,535.007814 411.437329,524.685898 Z M345.562671,524.685898 C339.844755,535.007814 336.8156,546.364673 336.654,558.226969 C340.590869,558.53642 344.555245,558.323242 348.443978,557.549614 C346.680123,553.330763 345.775847,549.084405 345.775847,544.985896 C345.775847,538.332696 348.158598,532.074905 353.082264,526.993029 C350.551665,526.301921 348.041695,525.53517 345.562671,524.685898 Z M425.169955,519.198297 C424.045626,519.688261 422.915496,520.160819 421.776661,520.617421 L420.634819,521.068757 L420.579806,521.092826 L420.524793,521.113456 C419.025688,521.773619 417.516268,522.399398 415.996533,522.99767 C421.655998,532.484068 426.923495,542.46215 426.923495,553.430475 C426.923495,554.699225 426.851291,555.985167 426.703443,557.281423 C429.38189,556.693466 432.0122,555.864825 434.549676,554.816129 C437.083713,553.763995 439.528354,552.488368 441.84234,551.009879 C431.984693,543.184203 428.192233,531.14999 425.169955,519.198297 Z M331.830045,519.198297 C328.811205,531.14999 325.015307,543.184203 315.15766,551.009879 C317.471646,552.488368 319.916287,553.763995 322.450324,554.816129 C324.9878,555.864825 327.61811,556.693466 330.296557,557.281423 C330.148709,555.985167 330.076505,554.702664 330.076505,553.430475 C330.076505,542.46215 335.344002,532.484068 341.003467,522.99767 C339.863666,522.548966 338.729667,522.084789 337.60147,521.602238 L336.475207,521.113456 L336.420194,521.092826 L336.365181,521.068757 C334.83857,520.473924 333.32915,519.851583 331.830045,519.198297 Z M320.466417,513.483765 C320.284187,524.909391 313.24252,533.818147 302.136765,538.367079 C304.340725,541.667892 306.995103,544.621431 309.993313,547.183 C318.269335,538.683407 324.155728,528.512778 327.411812,517.166234 C325.060005,516.017826 322.742581,514.78346 320.466417,513.483765 Z M436.533583,513.483765 C434.257419,514.78346 431.939995,516.017826 429.588188,517.166234 C432.844272,528.512778 438.730665,538.683407 447.006687,547.183 C450.004897,544.621431 452.659275,541.667892 454.863235,538.367079 C443.75748,533.818147 436.715813,524.909391 436.533583,513.483765 Z M382.029429,530.596416 C380.856964,530.661744 379.681061,530.699566 378.501719,530.706443 C377.318939,530.699566 376.143036,530.661744 374.970571,530.596416 C370.442311,533.735626 367.952972,538.422093 367.698537,543.483339 C370.070973,540.185964 374.451385,538.315504 378.501719,538.315504 C382.552053,538.315504 386.929027,540.185964 389.301463,543.483339 C389.047028,538.422093 386.557689,533.735626 382.029429,530.596416 Z M466.725418,486.527128 C465.7008,487.967795 464.6418,489.391271 463.551854,490.780363 C469.482946,491.000417 475.135534,493.51041 479.031144,498.320657 C485.27856,506.012238 485.474544,516.354784 487.413753,525.631443 C487.451575,525.813676 487.468766,525.989031 487.468766,526.164387 C487.468766,526.807358 487.214331,527.385 486.801733,527.80104 C486.275671,528.327107 485.488297,528.595298 484.632157,528.413066 C475.355586,526.473838 465.009699,526.277853 457.321629,520.030377 C452.50799,516.138168 449.99802,510.485527 449.781407,504.554379 C448.388889,505.644335 446.968866,506.703346 445.524774,507.724534 C444.276666,509.643132 443.729974,511.661441 443.729974,513.669436 C443.729974,518.001752 446.270888,522.285932 449.757338,525.383882 C455.282709,530.27665 462.688837,532.374041 469.799271,533.639352 C479.588151,535.382594 489.720862,535.939606 498.801449,539.80087 C494.936784,530.720196 494.383216,520.587389 492.636552,510.798416 C491.374691,503.687916 489.277319,496.285155 484.384599,490.759733 C479.849462,485.653788 472.776851,482.579906 466.725418,486.527128 Z M272.615401,490.759733 C267.722681,496.285155 265.625309,503.687916 264.363448,510.798416 C262.620223,520.587389 262.063216,530.720196 258.198551,539.80087 C267.279138,535.939606 277.411849,535.382594 287.200729,533.639352 C294.311163,532.374041 301.717291,530.27665 307.242662,525.383882 C310.729112,522.285932 313.270026,518.001752 313.270026,513.669436 C313.270026,511.661441 312.723334,509.643132 311.475226,507.724534 C310.031134,506.703346 308.611111,505.644335 307.218593,504.554379 C307.00198,510.485527 304.49201,516.138168 299.678371,520.030377 C291.990301,526.277853 281.644414,526.473838 272.367843,528.413066 C271.511703,528.595298 270.724329,528.327107 270.198267,527.80104 C269.785669,527.385 269.531234,526.807358 269.531234,526.164387 C269.531234,525.989031 269.548425,525.813676 269.586247,525.631443 C271.525456,516.354784 271.72144,506.012238 277.968856,498.320657 C281.864466,493.51041 287.517054,491.000417 293.448146,490.780363 C292.3582,489.391271 291.2992,487.967795 290.274582,486.527128 C284.223149,482.579906 277.150538,485.653788 272.615401,490.759733 Z M378.501719,315.0671 C365.403729,315.090633 352.437228,317.921461 340.000768,323.318518 L339.153654,323.690473 L338.899219,323.772993 L338.857959,323.797062 L338.816699,323.807377 C338.741056,323.855514 338.665413,323.900212 338.576017,323.931157 C325.613573,328.920198 314.139919,336.199178 304.657049,345.654631 C295.201686,355.141029 287.919337,366.611353 282.930343,379.57392 C282.909713,379.633518 282.882971,379.687003 282.854191,379.738451 L282.810002,379.814604 L282.799687,379.859302 L282.775619,379.897124 L282.689661,380.151562 C277.054265,392.845937 274.090438,406.10764 274.069808,419.5 C274.08998,432.594752 276.923993,445.564589 282.317929,457.998096 L282.689661,458.845 L282.775619,459.102876 L282.799687,459.140698 L282.810002,459.185396 C282.8547,459.26104 282.899399,459.336683 282.930343,459.42608 C287.919337,472.385208 295.201686,483.858971 304.657049,493.345369 C314.139919,502.797384 325.613573,510.079802 338.576017,515.068843 C338.635614,515.089473 338.689099,515.116215 338.740547,515.144996 L338.816699,515.189185 L338.857959,515.202938 L338.899219,515.223568 L339.153654,515.309527 C351.847909,520.948415 365.106048,523.91227 378.501719,523.929462 C391.596347,523.912652 404.562774,521.078687 416.999232,515.681487 L417.846346,515.309527 L418.100781,515.223568 L418.142041,515.202938 L418.183301,515.189185 C418.258944,515.144486 418.334587,515.099788 418.423983,515.068843 C431.386427,510.079802 442.860081,502.797384 452.342951,493.345369 C461.798314,483.858971 469.080663,472.385208 474.069657,459.42608 C474.090287,459.366482 474.117029,459.312997 474.145809,459.261549 L474.189998,459.185396 L474.203751,459.140698 L474.224381,459.102876 L474.310339,458.845 C479.945735,446.154063 482.909562,432.89236 482.930192,419.5 C482.91002,406.405248 480.076007,393.435411 474.682071,380.998689 L474.310339,380.151562 L474.224381,379.897124 L474.203751,379.859302 L474.189998,379.814604 C474.1453,379.73896 474.100601,379.663317 474.069657,379.57392 C469.080663,366.611353 461.798314,355.141029 452.342951,345.654631 C442.860081,336.199178 431.386427,328.920198 418.423983,323.931157 C418.364386,323.910527 418.310901,323.883785 418.259453,323.853986 L418.183301,323.807377 L418.142041,323.797062 L418.100781,323.772993 L417.846346,323.690473 C405.152091,318.051585 391.893952,315.091168 378.501719,315.0671 Z M285.255932,503.911858 L284.989893,503.914846 C281.458745,504.048942 279.901189,506.94403 278.7356,509.852871 C277.171167,513.789778 276.414738,517.977684 275.826787,522.172467 C280.02153,521.587948 284.209396,520.828073 288.149704,519.263626 C291.058518,518.098026 293.95014,516.543893 294.087672,513.009273 C294.087672,512.947383 294.091111,512.882054 294.091111,512.820164 C294.091111,510.660882 292.750168,508.216218 291.268255,506.734291 C289.863772,505.329795 287.594964,504.053349 285.524746,503.922364 L285.255932,503.911858 Z M465.731745,506.734291 C464.249832,508.216218 462.908889,510.660882 462.908889,512.820164 C462.908889,512.882054 462.912328,512.947383 462.912328,513.009273 C463.04986,516.543893 465.941482,518.098026 468.850296,519.263626 C472.790604,520.828073 476.97847,521.587948 481.173213,522.172467 C480.585262,517.977684 479.828833,513.789778 478.2644,509.852871 C477.098811,506.94403 475.541255,504.048942 472.010107,503.914846 C469.806147,503.832326 467.258357,505.207665 465.731745,506.734291 Z M379.001381,323.234807 C380.124976,323.245115 381.245134,323.286348 382.358421,323.361941 C393.453993,324.105648 404.199977,326.778559 414.411014,331.113628 L415.337811,331.512297 L415.348119,331.522605 L415.478689,331.572428 L415.60926,331.622251 L415.866965,331.735641 L415.88071,331.735641 C426.525651,335.920773 436.339064,341.751782 444.963597,349.293954 C445.801998,350.025836 446.623219,350.788644 447.427259,351.575504 C448.214119,352.379544 448.976926,353.200764 449.708809,354.042601 C457.022429,362.402453 462.727023,371.883454 466.882119,382.156632 L467.267121,383.122053 L467.267121,383.135797 L467.380511,383.393502 L467.431623,383.524073 L467.480157,383.654644 L467.490466,383.664952 C472.060437,394.151834 474.874578,405.21254 475.640821,416.644342 C475.716415,417.757628 475.757648,418.877787 475.767956,420.001381 C475.757648,421.124976 475.716415,422.245134 475.640821,423.358421 C474.897114,434.453993 472.224204,445.199977 467.889134,455.411014 L467.490466,456.337811 L467.480157,456.348119 L467.431623,456.477401 L467.380511,456.60926 L467.267121,456.863529 L467.267121,456.88071 C463.081989,467.525651 457.25098,477.335628 449.708809,485.960161 C448.976926,486.801998 448.214119,487.623219 447.427259,488.427259 C446.623219,489.214119 445.801998,489.97349 444.963597,490.708809 C436.600414,498.022429 427.119312,503.727023 416.846131,507.882119 L415.88071,508.267121 L415.866965,508.267121 L415.60926,508.380511 L415.478689,508.430334 L415.348119,508.480157 L415.337811,508.490466 C404.850928,513.060437 393.790222,515.874578 382.358421,516.640821 C381.245134,516.712979 380.124976,516.757648 379.001381,516.767956 C377.877787,516.757648 376.757628,516.712979 375.644342,516.640821 C364.54877,515.897114 353.802785,513.224204 343.594891,508.889134 L342.668388,508.490466 L342.65808,508.480157 L342.525791,508.430334 L342.393502,508.380511 L342.139233,508.267121 L342.122053,508.267121 C331.477111,504.081989 321.667134,498.25098 313.042601,490.708809 C312.2042,489.97349 311.379544,489.214119 310.57894,488.427259 C309.79208,487.623219 309.029273,486.801998 308.293954,485.960161 C300.980333,477.596978 295.275739,468.119107 291.123777,457.846122 L290.739077,456.88071 L290.739077,456.863529 L290.625687,456.60926 L290.574146,456.477401 L290.522605,456.348119 L290.512297,456.337811 C285.942325,445.850928 283.128185,434.790222 282.365377,423.358421 C282.289784,422.245134 282.248551,421.124976 282.234807,420.001381 C282.248551,418.877787 282.289784,417.757628 282.365377,416.644342 C283.105749,405.54877 285.778562,394.802785 290.113628,384.591749 L290.512297,383.664952 L290.522605,383.654644 L290.574146,383.524073 L290.625687,383.393502 L290.739077,383.135797 L290.739077,383.122053 C294.920773,372.477111 300.751782,362.663698 308.293954,354.042601 C309.029273,353.200764 309.79208,352.379544 310.57894,351.575504 C311.379544,350.788644 312.2042,350.025836 313.042601,349.293954 C321.405785,341.980333 330.883656,336.275739 341.156641,332.120644 L342.122053,331.735641 L342.139233,331.735641 L342.393502,331.622251 L342.525791,331.572428 L342.65808,331.522605 L342.668388,331.512297 C353.151834,326.942325 364.21254,324.128185 375.644342,323.361941 C376.757628,323.286348 377.877787,323.245115 379.001381,323.234807 Z M283.195094,499.530955 C287.200729,498.877669 291.622401,500.651856 294.486517,503.515998 C296.94835,505.977854 298.605617,509.591557 298.605617,513.105547 C298.605617,513.676312 298.560919,514.247078 298.468084,514.807528 C301.191229,511.795537 302.731594,507.944589 302.731594,503.742929 C302.731594,502.70111 302.635321,501.631784 302.439337,500.552144 C301.566005,499.768201 300.706427,498.963627 299.86404,498.134986 C299.038844,497.296029 298.230841,496.436443 297.446905,495.563103 C292.028122,494.576297 286.953171,496.133868 283.195094,499.530955 Z M459.553095,495.563103 C458.769159,496.436443 457.961156,497.296029 457.13596,498.134986 C456.293573,498.963627 455.433995,499.768201 454.560663,500.552144 C454.364679,501.635223 454.268406,502.70111 454.268406,503.742929 C454.268406,507.944589 455.808771,511.795537 458.531916,514.807528 C458.439081,514.247078 458.394383,513.676312 458.394383,513.105547 C458.394383,509.591557 460.05165,505.977854 462.513483,503.515998 C465.377599,500.651856 469.799271,498.877669 473.804906,499.530955 C470.046829,496.133868 464.971878,494.576297 459.553095,495.563103 Z M530.186379,441.144392 C527.18817,443.496221 524.083372,445.683009 520.744769,447.512209 C521.51839,450.926488 521.889728,454.402656 521.889728,457.875386 C521.889728,464.514833 520.528155,471.143965 517.994118,477.281414 C514.112261,486.623402 507.50726,494.837612 498.890845,500.277076 C499.960161,503.9286 500.606564,507.672959 501.06386,511.45514 C507.259702,509.890693 512.520322,504.702228 516.594724,500.10172 C521.556211,494.490339 524.901691,488.174096 527.741738,481.318033 C530.581785,474.46197 532.679157,467.629975 533.143329,460.15501 C533.232726,458.662767 533.298054,457.094881 533.298054,455.499489 C533.298054,450.537954 532.665404,445.297914 530.186379,441.144392 Z M226.813621,441.144392 C224.334596,445.297914 223.701946,450.537954 223.701946,455.499489 C223.701946,457.094881 223.767274,458.662767 223.856671,460.15501 C224.320843,467.629975 226.421653,474.46197 229.258262,481.318033 C232.098309,488.174096 235.443789,494.490339 240.405276,500.10172 C244.479678,504.702228 249.740298,509.890693 255.93614,511.45514 C256.393436,507.672959 257.039839,503.9286 258.109155,500.277076 C249.49274,494.837612 242.887739,486.623402 239.005882,477.281414 C236.471845,471.140527 235.110272,464.514833 235.110272,457.875386 C235.110272,454.402656 235.48161,450.926488 236.255231,447.512209 C232.916628,445.683009 229.81183,443.496221 226.813621,441.144392 Z M427.315947,487.365514 C422.099994,490.846251 416.461405,493.839068 410.596035,496.271804 C404.723794,498.701105 398.621335,500.570327 392.474208,501.797003 C392.185578,504.995983 390.742429,507.92695 388.574269,510.150087 C396.61798,509.177298 404.550171,506.984171 412.269591,503.662755 L413.159343,503.274513 L413.413612,503.188611 L413.451409,503.167995 L413.492642,503.157687 C413.575107,503.11989 413.643829,503.068349 413.733166,503.037424 C421.890394,499.883113 429.356972,495.704853 435.978277,490.512953 C432.875507,490.475156 429.779609,489.423719 427.315947,487.365514 Z M330.690251,487.365514 C328.223154,489.423719 325.130692,490.475156 322.027921,490.512953 C328.64579,495.704853 336.112368,499.883113 344.273032,503.037424 C344.332591,503.058041 344.382986,503.08782 344.4344,503.116581 L344.513557,503.157687 L344.55479,503.167995 L344.58915,503.188611 L344.843419,503.274513 C352.846024,506.813664 361.078845,509.139883 369.428493,510.150087 C367.26377,507.92695 365.817185,504.995983 365.531991,501.797003 C359.381427,500.570327 353.278969,498.701105 347.410163,496.271804 C341.541357,493.839068 335.906204,490.846251 330.690251,487.365514 Z M379.001381,491.684652 C374.232117,492.141649 369.961084,495.605207 369.961084,500.714642 C369.961084,505.483905 374.232117,509.754939 379.001381,509.754939 C383.774081,509.754939 388.045115,505.483905 388.045115,500.714642 C388.045115,495.605207 383.774081,492.141649 379.001381,491.684652 Z M335.249915,476.239522 C335.291148,476.679339 335.311764,477.122592 335.311764,477.562409 C335.311764,479.758057 334.789482,481.929652 333.648707,483.895084 C338.524489,487.073448 343.737005,489.815431 349.155686,492.059184 C354.570931,494.302937 360.195776,496.051896 365.892778,497.251084 C366.593736,494.615619 368.133095,492.395919 370.17412,490.705373 C364.389841,489.879513 358.664483,488.262886 353.068748,485.92914 L352.186299,485.554705 L352.155374,485.554705 L352.023086,485.503164 L351.890797,485.451623 L351.633092,485.338233 L351.612475,485.31418 C345.661204,482.957037 340.170366,479.92986 335.249915,476.239522 Z M422.756284,476.239522 C418.081855,479.745343 412.889551,482.652661 407.282482,484.955584 L406.393723,485.31418 L406.369671,485.338233 L406.111965,485.451623 L405.981395,485.503164 L405.850824,485.554705 L405.8199,485.554705 C399.944222,488.090524 393.917357,489.836047 387.832078,490.705373 C389.869667,492.395919 391.412462,494.615619 392.11342,497.251084 C397.806987,496.051896 403.431832,494.302937 408.850512,492.059184 C414.265757,489.815431 419.478274,487.073448 424.354056,483.895084 C423.216717,481.929652 422.690998,479.758057 422.690998,477.562409 C422.690998,477.122592 422.715051,476.679339 422.756284,476.239522 Z M476.167028,470.590392 C475.015193,472.942221 473.784277,475.256228 472.484594,477.535852 C483.910111,477.714646 492.818783,484.759818 497.364234,495.862239 C500.665015,493.661697 503.621965,491.007293 506.183509,488.005617 C497.680559,479.729517 487.510026,473.843067 476.167028,470.590392 Z M280.832972,470.590392 C269.489974,473.843067 259.319441,479.729517 250.816491,488.005617 C253.381473,491.007293 256.334985,493.661697 259.635766,495.862239 C264.181217,484.759818 273.089889,477.714646 284.515406,477.535852 C283.215723,475.256228 281.984807,472.942221 280.832972,470.590392 Z M206.218373,352.452463 C183.212928,345.208224 163.079723,362.672136 148.893949,378.870199 C135.107193,394.610767 122.035917,410.217182 103.40247,420 C122.035917,429.786258 135.107193,445.389233 148.893949,461.129801 C163.079723,477.327864 183.212928,494.791776 206.218373,487.547537 C202.940235,478.535237 201.189372,468.982886 201.189372,459.454614 C201.189372,453.434947 201.891093,447.422161 203.346132,441.571045 C190.095986,433.53909 176.078763,427.051609 161.356379,422.191159 C160.276279,421.833418 159.736229,420.918429 159.736229,420 C159.736229,419.081571 160.276279,418.166582 161.356379,417.808841 C176.078763,412.948391 190.095986,406.46091 203.346132,398.432395 C201.891093,392.577839 201.189372,386.568492 201.189372,380.545386 C201.189372,371.020554 202.943675,361.464763 206.218373,352.452463 Z M609.106051,378.870199 C594.916837,362.672136 574.783632,345.208224 551.781627,352.452463 C555.056325,361.464763 556.810628,371.017114 556.810628,380.545386 C556.810628,386.565053 556.108907,392.577839 554.650428,398.432395 C567.904014,406.46091 581.921237,412.948391 596.643621,417.808841 C597.720282,418.166582 598.260332,419.081571 598.260332,420 C598.260332,420.918429 597.720282,421.833418 596.643621,422.191159 C581.921237,427.051609 567.904014,433.53909 554.650428,441.571045 C556.108907,447.422161 556.810628,453.434947 556.810628,459.454614 C556.810628,468.979446 555.056325,478.535237 551.781627,487.547537 C574.783632,494.791776 594.916837,477.327864 609.106051,461.129801 C622.889367,445.389233 635.964083,429.786258 654.59753,420 C636.555621,410.527748 623.72511,395.595781 610.416806,380.368713 Z M429.690271,470.686835 C428.099371,472.617905 427.18194,475.02659 427.18194,477.40435 C427.18194,479.586253 427.95162,481.737233 429.679963,483.465575 C433.054182,486.839795 439.094792,486.839795 442.469011,483.465575 C444.156121,481.778465 444.997958,479.428194 444.997958,477.074487 C444.997958,474.72078 444.156121,472.367072 442.469011,470.679963 C438.854267,467.068654 433.384045,467.639042 429.690271,470.686835 Z M315.537187,470.679963 C313.850077,472.367072 313.00824,474.72078 313.00824,477.074487 C313.00824,479.428194 313.850077,481.778465 315.537187,483.465575 C318.907971,486.839795 324.94858,486.839795 328.3228,483.465575 C330.051143,481.737233 330.820822,479.586253 330.820822,477.40435 C330.820822,475.02659 329.906828,472.614469 328.315928,470.686835 C324.618717,467.639042 319.148496,467.068654 315.537187,470.679963 Z M379.001381,354.169736 C370.889359,354.18305 362.838606,355.902216 355.042803,359.211647 L354.289173,359.536875 L354.034904,359.622777 L354.000543,359.643394 L353.962747,359.653702 C353.880281,359.691498 353.81156,359.74304 353.722222,359.773964 C345.554686,362.9592 338.38361,367.53948 332.452955,373.449519 C326.53948,379.380174 321.962636,386.554686 318.773964,394.722222 C318.753348,394.78178 318.723568,394.832176 318.694807,394.88359 L318.653702,394.962747 L318.643394,395.000543 L318.622777,395.034904 L318.540311,395.289173 C315.018341,403.319266 313.18348,411.624245 313.173172,420.001381 C313.183158,428.113403 314.905444,436.164156 318.215074,443.959959 L318.540311,444.713589 L318.622777,444.967858 L318.643394,445.002219 L318.653702,445.040016 C318.691498,445.122482 318.74304,445.191203 318.773964,445.280541 C321.962636,453.448077 326.53948,460.619153 332.452955,466.549808 C338.38361,472.463282 345.554686,477.043562 353.722222,480.228798 C353.78178,480.249415 353.832176,480.279194 353.88359,480.307955 L353.962747,480.349061 L354.000543,480.359369 L354.034904,480.379985 L354.289173,480.462451 C362.319266,483.987858 370.627681,485.819283 379.001381,485.833027 C387.116732,485.819712 395.167589,484.100547 402.960271,480.787991 L403.713589,480.462451 L403.971294,480.379985 L404.005655,480.359369 L404.040016,480.349061 C404.125918,480.311264 404.191203,480.259723 404.280541,480.228798 C412.451513,477.043562 419.622589,472.463282 425.553244,466.549808 C431.466718,460.619153 436.043562,453.448077 439.228798,445.280541 C439.249415,445.220982 439.279194,445.170586 439.307955,445.119173 L439.349061,445.040016 L439.359369,445.002219 L439.379985,444.967858 L439.465887,444.713589 C442.987858,436.683496 444.822719,428.375081 444.833027,420.001381 C444.823041,411.886031 443.100755,403.838398 439.791125,396.042793 L439.465887,395.289173 L439.379985,395.034904 L439.359369,395.000543 L439.349061,394.962747 C439.311264,394.880281 439.259723,394.81156 439.228798,394.722222 C436.043562,386.554686 431.466718,379.380174 425.553244,373.449519 C419.622589,367.53948 412.451513,362.9592 404.280541,359.773964 C404.220982,359.753348 404.172114,359.723568 404.1207,359.694807 L404.040016,359.653702 L404.005655,359.643394 L403.971294,359.622777 L403.713589,359.536875 C395.686932,356.014905 387.378517,354.18348 379.001381,354.169736 Z M275.00503,456.995169 C264.415022,463.311412 253.219872,469.135971 240.718162,467.70218 C241.309552,470.384091 242.134748,473.010988 243.183434,475.551926 C244.238996,478.085987 245.511172,480.530651 246.989647,482.84122 C254.81525,472.986919 266.852787,469.190985 278.804367,466.168678 C278.314407,465.046917 277.839919,463.915486 277.382355,462.777286 L276.930485,461.636937 L276.909856,461.581924 L276.885787,461.52691 C276.225631,460.027791 275.599858,458.518357 275.00503,456.995169 Z M481.99497,456.995169 C481.548849,458.13756 481.085321,459.272214 480.602937,460.400583 L480.114213,461.52691 L480.093583,461.581924 L480.069515,461.636937 C479.474686,463.160125 478.848913,464.672997 478.195633,466.168678 C490.150651,469.190985 502.18475,472.986919 510.010353,482.84122 C511.488828,480.530651 512.764442,478.085987 513.816566,475.551926 C514.865252,473.010988 515.690448,470.384091 516.281838,467.70218 C503.780128,469.135971 492.584978,463.311412 481.99497,456.995169 Z M469.150087,429.574269 C466.930386,431.742429 463.995983,433.185578 460.800439,433.474208 C459.570327,439.621335 457.701105,445.723794 455.271804,451.592599 C452.839068,457.461405 449.846251,463.096558 446.365514,468.315947 C448.427155,470.779609 449.478592,473.872071 449.516389,476.974841 C454.704853,470.356972 458.883113,462.890394 462.037424,454.733166 C462.058041,454.671317 462.08782,454.621685 462.116581,454.571035 L462.157687,454.492642 L462.171431,454.451409 L462.192047,454.413612 L462.274513,454.159343 C465.813664,446.156738 468.139883,437.923917 469.150087,429.574269 Z M288.856112,429.574269 C289.825592,437.614671 292.021782,445.546739 295.340361,453.269223 L295.72825,454.159343 L295.814151,454.413612 L295.834768,454.451409 L295.845076,454.492642 C295.882873,454.575107 295.93785,454.640393 295.965338,454.733166 C299.123086,462.890394 303.297909,470.356972 308.48981,476.974841 C308.527606,473.872071 309.579044,470.779609 311.637249,468.315947 C308.156511,463.096558 305.163695,457.461405 302.730958,451.592599 C300.301657,445.723794 298.435872,439.621335 297.205759,433.474208 C294.006779,433.185578 291.075812,431.742429 288.856112,429.574269 Z M379.001381,363.345304 C385.914851,363.394921 392.79319,364.875323 399.503797,367.616915 L400.222143,367.915475 L400.263256,367.936031 L400.395157,367.987848 L400.527059,368.042234 L400.78401,368.155289 L400.828549,368.168993 C407.80735,370.998799 413.967332,374.911195 419.065248,379.940438 C423.917909,384.862416 427.735773,390.774446 430.540427,397.454511 L430.83705,398.173161 L430.850754,398.217698 C430.88844,398.306771 430.926126,398.392419 430.963812,398.478067 L431.015203,398.609965 L431.066593,398.741863 L431.090575,398.782974 C434.019821,405.717027 435.609494,412.842931 435.657459,420.003094 C435.611148,426.913048 434.127621,433.794258 431.388814,440.501795 L431.090575,441.219789 L431.066593,441.2609 C431.032333,441.349974 430.998073,441.435621 430.963812,441.524695 L430.907283,441.653595 L430.850754,441.785065 L430.83705,441.829602 C428.007158,448.804766 424.091218,454.964562 419.065248,460.062324 C414.143122,464.914838 408.230913,468.732587 401.547563,471.537156 L400.828549,471.83377 L400.78401,471.850899 L400.527059,471.963954 L400.395157,472.015343 L400.263256,472.066732 L400.222143,472.087287 C393.284455,475.016445 386.161761,476.60607 379.001381,476.657459 C372.087911,476.607842 365.209573,475.124245 358.502049,472.385517 L357.784045,472.087287 L357.742933,472.066732 L357.609746,472.015343 L357.479129,471.963954 L357.218752,471.850899 L357.174214,471.83377 C350.198839,469.003963 344.038857,465.088142 338.94094,460.062324 C334.084972,455.140347 330.270187,449.228316 327.465749,442.548252 L327.169139,441.829602 L327.152009,441.785065 L327.095479,441.653595 L327.03895,441.524695 L326.936169,441.2609 L326.915613,441.219789 C323.982941,434.285736 322.393268,427.159832 322.345304,420.003094 C322.391614,413.089833 323.875142,406.208509 326.617032,399.500967 L326.915613,398.782974 L326.936169,398.741863 C326.97043,398.652789 327.00469,398.567141 327.03895,398.478067 L327.095479,398.349167 L327.152009,398.217698 L327.169139,398.173161 C329.99903,391.197997 333.911544,385.038201 338.94094,379.940438 C343.863066,375.084617 349.775275,371.269947 356.455542,368.465595 L357.174214,368.168993 L357.218752,368.155289 L357.479129,368.042234 L357.609746,367.987848 L357.742933,367.936031 L357.784045,367.915475 C364.718308,364.982891 371.841001,363.396693 379.001381,363.345304 Z M363.234841,447.633103 C360.663458,449.682838 357.022528,450.025216 354.11142,448.610254 L353.840697,448.472452 L353.662544,448.698562 C350.709316,451.648276 347.766365,454.591137 344.816563,457.544276 C346.478182,459.027697 348.232304,460.387786 350.109762,461.624541 C352.559366,456.519927 358.267114,454.628822 363.731614,456.869371 C368.010712,458.657699 370.59393,462.357687 370.59393,466.451656 C370.59393,467.568505 370.402073,468.716186 369.997803,469.863868 C371.925367,470.262559 373.852931,470.522233 375.796561,470.66584 L376.630576,470.720347 L376.630576,458.208904 C376.630576,458.112978 376.651132,458.020478 376.66141,457.924553 C373.461508,456.948167 370.994775,454.056694 370.611061,450.689019 C369.340007,450.301891 368.082658,449.84967 366.852718,449.339208 C365.619351,448.828747 364.40654,448.256619 363.234841,447.633103 Z M394.771347,447.633103 C393.596222,448.256619 392.386838,448.828747 391.153471,449.339208 C389.920104,449.84967 388.662755,450.301891 387.391702,450.689019 C387.011414,454.056694 384.541254,456.948167 381.344778,457.924553 L381.36405,458.066728 L381.375612,458.208904 L381.375612,470.720347 C383.599099,470.593588 385.802029,470.319515 388.004959,469.863868 C387.604115,468.716186 387.412258,467.568505 387.412258,466.451656 C387.412258,462.357687 389.99205,458.657699 394.274574,456.869371 C399.739075,454.628822 405.443396,456.519927 407.893,461.624541 C409.773884,460.387786 411.52458,459.027697 413.189626,457.544276 L408.766635,453.120134 L404.343644,448.698562 L404.162065,448.472452 C401.212263,450.044947 397.423086,449.746892 394.771347,447.633103 Z M354.03598,463.947312 C355.76612,464.868883 357.56478,465.708233 359.428534,466.44823 C359.487919,466.468786 359.541212,466.495432 359.592476,466.524108 L359.668356,466.568137 L359.709468,466.578415 L359.743728,466.598971 L359.997253,466.684619 C361.840452,467.479431 363.704206,468.157762 365.581665,468.72989 C365.90371,467.952207 366.051029,467.205358 366.051029,466.499619 C366.047603,464.005553 364.235239,462.018522 361.980918,461.093525 C359.09621,459.887602 355.485186,460.428897 354.03598,463.947312 Z M396.02527,461.093525 C393.770949,462.018522 391.955159,464.005553 391.955159,466.499619 C391.955159,467.205358 392.102478,467.952207 392.424524,468.72989 C393.986218,468.253117 395.540774,467.702591 397.082244,467.072366 L398.005509,466.684619 L398.26246,466.598971 L398.296721,466.578415 L398.334407,466.568137 C398.409779,466.523601 398.485152,466.479064 398.574228,466.44823 C400.441409,465.708233 402.236643,464.868883 403.966782,463.947312 C402.517576,460.428897 398.909978,459.887602 396.02527,461.093525 Z M449.705373,428.828642 C448.879513,434.612921 447.265987,440.338279 444.929605,445.934014 L444.554705,446.816464 L444.554705,446.847388 L444.503164,446.979677 L444.451623,447.111965 L444.338233,447.369671 L444.317616,447.390287 C441.957037,453.341559 438.92986,458.832397 435.242958,463.752848 C437.878423,463.505451 440.537941,463.9865 442.895084,465.354056 C446.073448,460.478274 448.815431,455.265757 451.059184,449.847076 C453.302937,444.428396 455.051896,438.806987 456.251084,433.109984 C453.615619,432.412462 451.395919,430.869667 449.705373,428.828642 Z M308.29739,428.828642 C306.606844,430.869667 304.387143,432.412462 301.751678,433.109984 C302.954303,438.806987 304.699826,444.428396 306.943579,449.847076 C309.190768,455.265757 311.929315,460.478274 315.107679,465.354056 C317.468258,463.9865 320.127775,463.505451 322.76324,463.752848 C319.257419,459.078419 316.350101,453.889216 314.047178,448.279511 L313.688582,447.390287 L313.66453,447.369671 L313.551139,447.111965 L313.451493,446.847388 L313.451493,446.816464 C310.912238,440.940786 309.170151,434.917357 308.29739,428.828642 Z M271.00627,444.919696 C262.799015,452.872592 251.521345,454.189478 240.453412,449.554587 C239.903282,452.308703 239.638532,455.097202 239.638532,457.889139 C239.638532,459.040985 239.68323,460.19627 239.772626,461.344678 C251.638248,461.186514 262.991561,458.153892 273.313379,452.435922 C272.464116,449.960312 271.697372,447.450319 271.00627,444.919696 Z M485.99373,444.919696 C485.302628,447.450319 484.535884,449.960312 483.686621,452.435922 C494.008439,458.153892 505.361752,461.186514 517.227374,461.344678 C517.31677,460.192832 517.364906,459.040985 517.364906,457.889139 C517.364906,455.097202 517.096718,452.308703 516.546588,449.554587 C505.478655,454.189478 494.200985,452.872592 485.99373,444.919696 Z M341.078776,422.342994 L340.934883,422.362265 L340.790991,422.373828 L328.282595,422.373828 C328.409358,424.597247 328.683439,426.80011 329.1391,429.0064 C334.480263,427.125572 339.855687,429.821768 342.13399,435.272399 C342.760952,436.800358 343.065867,438.348872 343.065867,439.839145 C343.065867,443.67617 341.054794,447.129493 337.378676,448.890414 C338.612042,450.771241 339.975598,452.52531 341.459064,454.186879 L345.88334,449.764022 L350.305045,445.341165 L350.531163,445.163018 C349.866515,443.912558 349.534191,442.514785 349.534191,441.117011 C349.534191,439.208776 350.150875,437.297116 351.370537,435.769157 C350.743576,434.594068 350.174857,433.38472 349.66438,432.15139 C349.153903,430.921487 348.701669,429.664176 348.314528,428.389735 C344.943326,428.009459 342.051766,425.5428 341.078776,422.342994 Z M416.927412,422.342994 C415.950997,425.5428 413.059437,428.009459 409.69166,428.389735 C409.301094,429.664176 408.852285,430.921487 408.338383,432.15139 C407.827906,433.38472 407.259186,434.594068 406.635651,435.769157 C407.855314,437.297116 408.468571,439.208776 408.468571,441.117011 C408.468571,442.398304 408.192206,443.679596 407.634197,444.847419 L407.475026,445.163018 L407.697717,445.341165 C410.650945,448.290878 413.593896,451.237166 416.543698,454.186879 C418.027164,452.52531 419.39072,450.771241 420.627513,448.890414 C416.947968,447.129493 414.940321,443.67617 414.940321,439.839145 C414.940321,438.348872 415.241811,436.800358 415.868772,435.272399 C418.150501,429.821768 423.522499,427.125572 428.863663,429.0064 C429.262366,427.075897 429.52467,425.148016 429.668938,423.206693 L429.723594,422.373828 L417.211772,422.373828 C417.115843,422.373828 417.023341,422.353272 416.927412,422.342994 Z M379.001381,445.848201 C376.517517,446.088015 375.239612,448.095601 375.239612,450.024392 C375.239612,451.918923 376.472979,453.74151 379.001381,453.74151 C381.533209,453.74151 382.76315,451.918923 382.76315,450.024392 C382.76315,448.095601 381.488671,446.088015 379.001381,445.848201 Z M384.674869,433.696478 C382.029982,434.731105 381.629138,438.468779 381.588026,441.154696 C383.760122,441.843305 385.517669,443.347282 386.682516,445.296628 C387.501335,445.032833 388.313301,444.734778 389.111563,444.402464 C389.9064,444.073576 390.690958,443.710429 391.458387,443.319875 C391.256251,442.514785 391.153471,441.695991 391.153471,440.884049 C391.153471,439.469146 391.468665,438.071372 392.133312,436.786654 C390.204464,434.916104 387.278643,432.555649 384.674869,433.696478 Z M365.872876,436.786654 C366.537524,438.071372 366.852718,439.469146 366.852718,440.880623 C366.852718,441.695991 366.746511,442.514785 366.544376,443.319875 C367.311804,443.710429 368.096363,444.073576 368.894625,444.402464 C369.692887,444.734778 370.501428,445.032833 371.323672,445.296628 C372.488519,443.347282 374.246067,441.843305 376.418163,441.154696 C376.377051,438.468779 375.976206,434.731105 373.327894,433.696478 C370.727545,432.555649 367.801725,434.916104 365.872876,436.786654 Z M353.95033,441.216363 C353.95033,442.096823 354.30321,443.018394 355.14601,443.857744 C357.965624,446.680698 361.706837,444.015336 361.706837,440.894327 C361.706837,440.020718 361.412199,439.112851 360.723569,438.276927 C357.794323,435.865083 353.95033,438.314612 353.95033,441.216363 Z M397.279193,438.276927 C396.590563,439.112851 396.299351,440.020718 396.299351,440.894327 C396.299351,444.015336 400.040564,446.677272 402.860178,443.857744 C403.699553,443.018394 404.055859,442.096823 404.055859,441.216363 C404.052433,438.314612 400.211865,435.865083 397.279193,438.276927 Z M330.273112,433.422405 C330.7499,434.984052 331.300442,436.54094 331.930687,438.083157 L332.318445,439.006647 L332.404096,439.260165 L332.421226,439.294424 L332.43493,439.335535 C332.479468,439.407479 332.524007,439.48285 332.551415,439.571923 C333.294861,441.439047 334.134235,443.237653 335.055835,444.96774 C337.47803,443.967373 338.488706,441.942657 338.488706,439.835719 C338.488706,438.88674 338.283145,437.917206 337.909708,437.023042 C336.72088,434.128144 333.784782,431.959539 330.273112,433.422405 Z M420.09648,437.023042 C419.719618,437.917206 419.514057,438.88674 419.514057,439.835719 C419.514057,441.942657 420.524732,443.967373 422.950354,444.96774 C423.871953,443.237653 424.711328,441.439047 425.451348,439.571923 C425.471904,439.512541 425.498551,439.459249 425.527228,439.409002 L425.571258,439.335535 L425.581536,439.294424 L425.602093,439.260165 L425.687743,439.006647 C426.482579,437.163505 427.160931,435.296381 427.733076,433.422405 C424.221407,431.959539 421.285309,434.128144 420.09648,437.023042 Z M488.280208,404.508809 C488.575903,406.252051 488.830339,408.005607 489.043514,409.762603 C493.392981,405.722545 499.16591,403.501373 505.320493,404.147783 C515.1747,405.168972 522.628965,412.344801 530.557717,417.533266 C531.293516,418.011196 531.657978,418.753879 531.657978,419.5 C531.657978,420.242683 531.293516,420.988804 530.557717,421.466734 C522.628965,426.655199 515.1747,433.831028 505.320493,434.852217 C499.16591,435.498627 493.392981,433.277455 489.043514,429.237397 C488.830339,430.990954 488.575903,432.747949 488.280208,434.487753 C489.76556,441.560432 496.94476,444.386752 503.75606,443.984466 C511.124367,443.537481 517.842832,439.782806 523.767047,435.649914 C531.91929,429.95945 539.480142,423.189346 548.632934,419.5 C539.480142,415.810654 531.91929,409.037111 523.767047,403.350086 C517.842832,399.213755 511.124367,395.462519 503.75606,395.015534 C496.94476,394.613248 489.76556,397.439568 488.280208,404.508809 Z M253.24394,395.015534 C245.875633,395.462519 239.157168,399.213755 233.232953,403.350086 C225.08071,409.037111 217.523296,415.810654 208.367066,419.5 C217.523296,423.189346 225.08071,429.95945 233.232953,435.649914 C239.157168,439.782806 245.875633,443.537481 253.24394,443.984466 C260.058679,444.386752 267.23444,441.560432 268.72323,434.487753 C268.424097,432.747949 268.169661,430.990954 267.956486,429.237397 C263.607019,433.277455 257.83409,435.498627 251.679507,434.852217 C241.8253,433.831028 234.371035,426.655199 226.442283,421.466734 C225.706484,420.988804 225.342022,420.242683 225.342022,419.5 C225.342022,418.753879 225.706484,418.011196 226.442283,417.533266 C234.371035,412.344801 241.8253,405.168972 251.679507,404.147783 C257.83409,403.501373 263.607019,405.722545 267.956486,409.762603 C268.169661,408.005607 268.424097,406.252051 268.72323,404.508809 C267.23444,397.439568 260.058679,394.613248 253.24394,395.015534 Z M400.157049,422.586234 C397.47105,422.627345 393.733263,423.028178 392.698605,425.672984 C392.489618,426.149187 392.400542,426.632241 392.400542,427.118721 C392.400542,429.307881 394.257444,431.555281 395.788875,433.131202 C397.810226,432.082872 400.119363,431.904725 402.322293,432.459723 C402.712859,431.688892 403.076017,430.907783 403.404915,430.109545 C403.733813,429.311307 404.035303,428.50279 404.299106,427.680571 C402.349701,426.51576 400.845679,424.758265 400.157049,422.586234 Z M357.849139,422.586234 C357.16051,424.758265 355.653061,426.51576 353.707082,427.680571 C353.970886,428.50279 354.26895,429.311307 354.601273,430.109545 C354.930171,430.907783 355.293329,431.688892 355.683895,432.459723 C357.886826,431.904725 360.192537,432.082872 362.217314,433.131202 C363.745318,431.555281 365.605647,429.307881 365.605647,427.118721 C365.605647,426.632241 365.513144,426.145761 365.307583,425.672984 C364.272925,423.028178 360.535138,422.627345 357.849139,422.586234 Z M379.001381,407.173041 C378.175912,408.659485 377.037857,409.891013 375.48439,410.62199 L375.188222,410.753122 L375.174518,410.759974 L375.160814,410.766826 C373.45123,411.469139 371.6697,411.424602 369.932709,410.93127 C370.165678,411.756916 370.299293,412.592839 370.299293,413.425336 C370.299293,414.228714 370.173387,415.032091 369.896327,415.821697 L369.76826,416.159217 L369.761408,416.172921 L369.754556,416.186624 C369.04537,417.89273 367.753761,419.122634 366.174366,420.003094 C367.660855,420.828538 368.89242,421.966559 369.623419,423.519979 L369.754556,423.816138 L369.761408,423.829842 L369.76826,423.843545 C370.134844,424.741135 370.299293,425.659281 370.299293,426.577426 C370.299293,427.409923 370.165678,428.245847 369.932709,429.071492 C371.567524,428.60718 373.241793,428.540416 374.858399,429.119691 L375.160814,429.235936 L375.188222,429.24964 C376.894379,429.958805 378.12432,431.250375 379.001381,432.829722 C379.830075,431.343277 380.968319,430.11175 382.518941,429.380773 L382.81454,429.24964 L382.831671,429.242788 L382.845375,429.235936 C384.551532,428.533624 386.336488,428.578161 388.07348,429.071492 C387.837084,428.245847 387.70347,427.409923 387.70347,426.577426 C387.70347,425.774049 387.829376,424.970672 388.10873,424.181065 L388.237929,423.843545 L388.244781,423.829842 L388.248207,423.816138 C388.960819,422.110032 390.252428,420.880129 391.831823,420.003094 C390.345333,419.174426 389.113768,418.036216 388.379913,416.482784 L388.248207,416.186624 L388.244781,416.172921 L388.237929,416.159217 C387.867919,415.261627 387.70347,414.343482 387.70347,413.425336 C387.70347,412.592839 387.837084,411.756916 388.07348,410.93127 C386.438664,411.395582 384.761361,411.462346 383.147253,410.883071 L382.845375,410.766826 L382.831671,410.759974 L382.81454,410.753122 C381.111809,410.043958 379.881868,408.752388 379.001381,407.173041 Z M502.480445,408.696715 C497.422685,408.954591 492.732825,411.440516 489.597083,415.968818 C489.658972,417.141294 489.696794,418.320647 489.707109,419.5 C489.696794,420.679353 489.658972,421.855267 489.597083,423.027744 C492.732825,427.559484 497.422685,430.045409 502.480445,430.299847 C499.18654,427.930826 497.316098,423.550372 497.316098,419.5 C497.316098,415.449628 499.18654,411.069174 502.480445,408.696715 Z M254.519555,408.696715 C257.81346,411.069174 259.683902,415.449628 259.683902,419.5 C259.683902,423.550372 257.81346,427.930826 254.519555,430.299847 C259.577315,430.045409 264.267175,427.559484 267.402917,423.027744 C267.341028,421.855267 267.303206,420.679353 267.292891,419.5 C267.303206,418.320647 267.341028,417.141294 267.402917,415.968818 C264.267175,411.440516 259.577315,408.954591 254.519555,408.696715 Z M459.714642,410.961084 C454.605207,410.961084 451.141649,415.232117 450.684652,420.001381 C451.141649,424.770645 454.605207,429.041679 459.714642,429.041679 C464.483905,429.041679 468.754939,424.770645 468.754939,420.001381 C468.754939,415.232117 464.483905,410.961084 459.714642,410.961084 Z M298.288121,410.961084 C293.518857,410.961084 289.247823,415.232117 289.247823,420.001381 C289.247823,424.770645 293.518857,429.041679 298.288121,429.041679 C303.397555,429.041679 306.861113,424.770645 307.321546,420.001381 C306.861113,415.232117 303.397555,410.961084 298.288121,410.961084 Z M244.06708,412.843361 C240.174909,414.524713 236.678143,416.948747 233.298281,419.5 C236.678143,422.051253 240.174909,424.475287 244.06708,426.153201 C246.948387,427.387567 250.094445,428.333112 252.690372,425.933146 C254.306379,424.434027 255.135013,421.659282 255.135013,419.5 C255.135013,417.340718 254.306379,414.565973 252.690372,413.066854 C250.094445,410.663449 246.948387,411.612433 244.06708,412.843361 Z M504.309628,413.066854 C502.693621,414.565973 501.864987,417.340718 501.864987,419.5 C501.864987,421.659282 502.693621,424.434027 504.309628,425.933146 C506.905555,428.333112 510.051613,427.387567 512.93292,426.153201 C516.825091,424.475287 520.321857,422.051253 523.701719,419.5 C520.321857,416.948747 516.825091,414.524713 512.93292,412.843361 C510.051613,411.612433 506.905555,410.663449 504.309628,413.066854 Z M378.498242,413.483425 C379.166165,413.483425 379.844633,413.613533 380.50904,413.887812 C380.60044,413.926493 380.688325,413.965173 380.776209,414.003854 C380.864094,414.039018 380.955494,414.074182 381.043378,414.109346 C381.711301,414.383626 382.280792,414.773947 382.755369,415.245146 C383.222914,415.716345 383.613122,416.286003 383.887321,416.95412 C383.925991,417.045547 383.961144,417.133457 383.992783,417.224884 C384.031452,417.309278 384.070121,417.400704 384.10879,417.488614 C384.386505,418.153216 384.513059,418.831882 384.516575,419.5 C384.513059,420.164601 384.386505,420.843268 384.10879,421.511386 C384.070121,421.599296 384.031452,421.690722 383.992783,421.775116 C383.961144,421.866543 383.925991,421.954453 383.887321,422.04588 C383.613122,422.713997 383.222914,423.283655 382.755369,423.754854 C382.280792,424.226053 381.711301,424.612858 381.043378,424.890654 C380.955494,424.925818 380.864094,424.960982 380.776209,424.996146 C380.688325,425.034827 380.60044,425.073507 380.50904,425.108671 C379.844633,425.386467 379.166165,425.516575 378.498242,425.516575 C377.833835,425.516575 377.155367,425.386467 376.487444,425.108671 C376.39956,425.073507 376.311675,425.034827 376.223791,424.996146 C376.132391,424.960982 376.044506,424.925818 375.956622,424.890654 C375.288699,424.612858 374.715692,424.226053 374.244631,423.754854 C373.777086,423.283655 373.386878,422.713997 373.112679,422.04588 C373.074009,421.954453 373.038856,421.866543 373.007217,421.775116 C372.965033,421.690722 372.926363,421.599296 372.89121,421.511386 C372.613495,420.843268 372.483425,420.164601 372.483425,419.5 C372.483425,418.831882 372.613495,418.153216 372.89121,417.488614 C372.926363,417.400704 372.965033,417.309278 373.007217,417.224884 C373.038856,417.133457 373.074009,417.045547 373.112679,416.95412 C373.386878,416.286003 373.777086,415.716345 374.244631,415.245146 C374.715692,414.773947 375.288699,414.383626 375.956622,414.109346 L376.088888,414.0566 L376.088888,414.0566 L376.223791,414.003854 L376.487444,413.887812 C377.155367,413.613533 377.833835,413.483425 378.498242,413.483425 Z M345.261945,420.003094 C345.261945,425.107708 352.679277,424.926135 353.155493,420.003094 C352.679277,415.076628 345.261945,414.895054 345.261945,420.003094 Z M404.850695,420.003094 C405.326912,424.926135 412.740817,425.107708 412.740817,420.003094 C412.740817,414.895054 405.326912,415.076628 404.850695,420.003094 Z M378.498242,418.258708 L378.498242,418.258708 C378.336535,418.244642 378.167796,418.255191 377.999058,418.293872 C377.851412,418.385299 377.728374,418.497824 377.622912,418.624414 C377.496359,418.72639 377.387382,418.852981 377.292467,419.00067 C377.264344,419.120228 377.253797,419.239786 377.253797,419.355827 C377.253797,419.405057 377.253797,419.454287 377.260828,419.5 C377.253797,419.545713 377.253797,419.594943 377.253797,419.644173 C377.253797,419.760214 377.264344,419.879772 377.292467,419.99933 C377.387382,420.147019 377.496359,420.27361 377.622912,420.375586 C377.728374,420.502176 377.851412,420.614701 377.999058,420.706128 C378.167796,420.744809 378.336535,420.755358 378.498242,420.741292 C378.65995,420.755358 378.828688,420.744809 378.997426,420.706128 C379.145072,420.614701 379.271626,420.502176 379.377088,420.375586 C379.500126,420.27361 379.612618,420.147019 379.707533,419.99933 C379.732141,419.879772 379.746203,419.760214 379.746203,419.644173 C379.746203,419.594943 379.742687,419.545713 379.739172,419.5 C379.742687,419.454287 379.746203,419.405057 379.746203,419.355827 C379.746203,419.239786 379.732141,419.120228 379.707533,419.00067 C379.612618,418.852981 379.500126,418.72639 379.377088,418.624414 C379.271626,418.497824 379.145072,418.385299 378.997426,418.293872 L378.828949,418.264438 L378.828949,418.264438 L378.662033,418.252977 Z M341.459064,385.815884 C339.975598,387.477453 338.612042,389.231521 337.378676,391.112349 C341.054794,392.873269 343.065867,396.326592 343.065867,400.163618 C343.065867,401.653891 342.760952,403.202405 342.13399,404.730363 C339.855687,410.177569 334.480263,412.87719 329.1391,410.996362 C328.740397,412.923868 328.480715,414.853997 328.337103,416.795929 L328.282595,417.628935 L340.790991,417.628935 C340.886919,417.628935 340.982848,417.64949 341.078776,417.659768 C342.051766,414.459963 344.943326,411.993304 348.314528,411.613027 C348.701669,410.342013 349.153903,409.084702 349.66438,407.851372 C350.174857,406.618042 350.743576,405.408694 351.370537,404.233605 C350.150875,402.705647 349.534191,400.793986 349.534191,398.885751 C349.534191,397.604459 349.813436,396.323166 350.371924,395.157982 L350.531163,394.843171 L350.305045,394.661597 C347.355243,391.711884 344.412293,388.765597 341.459064,385.815884 Z M416.543698,385.815884 L412.121992,390.23874 L407.697717,394.661597 L407.475026,394.843171 C408.139673,396.090204 408.468571,397.487978 408.468571,398.885751 C408.468571,400.793986 407.855314,402.705647 406.635651,404.233605 C407.259186,405.408694 407.827906,406.618042 408.338383,407.851372 C408.852285,409.084702 409.301094,410.342013 409.69166,411.613027 C413.059437,411.993304 415.950997,414.459963 416.927412,417.659768 L417.069592,417.640497 L417.211772,417.628935 L429.723594,417.628935 C429.596831,415.405516 429.319323,413.199226 428.863663,410.996362 C423.522499,412.87719 418.150501,410.177569 415.868772,404.730363 C415.241811,403.202405 414.940321,401.653891 414.940321,400.163618 C414.940321,396.326592 416.951394,392.873269 420.627513,391.112349 C419.39072,389.231521 418.027164,387.477453 416.543698,385.815884 Z M362.217314,406.87156 C360.192537,407.91989 357.886826,408.098038 355.683895,407.54304 C355.293329,408.313871 354.930171,409.094979 354.601273,409.893218 C354.26895,410.691456 353.970886,411.499972 353.707082,412.322192 C355.653061,413.487003 357.16051,415.244498 357.849139,417.416528 C360.535138,417.375417 364.272925,416.974585 365.307583,414.329778 C365.513144,413.857002 365.605647,413.370522 365.605647,412.887468 C365.605647,410.694882 363.745318,408.447481 362.217314,406.87156 Z M395.788875,406.87156 C394.257444,408.447481 392.400542,410.694882 392.400542,412.887468 C392.400542,413.370522 392.493044,413.857002 392.698605,414.329778 C393.733263,416.974585 397.47105,417.375417 400.157049,417.416528 C400.845679,415.244498 402.349701,413.487003 404.299106,412.322192 C404.035303,411.499972 403.733813,410.691456 403.404915,409.893218 C403.076017,409.094979 402.712859,408.313871 402.322293,407.54304 C400.119363,408.098038 397.810226,407.91989 395.788875,406.87156 Z M442.895084,374.648707 C440.537941,376.016262 437.878423,376.497312 435.242958,376.249915 C438.745515,380.924343 441.65267,386.113546 443.958531,391.723252 L444.317616,392.612475 L444.338233,392.633092 L444.451623,392.890797 L444.503164,393.021368 L444.554705,393.151938 L444.554705,393.186299 C447.09396,399.061977 448.836047,405.085406 449.705373,411.170684 C451.395919,409.133095 453.615619,407.5903 456.251084,406.892778 C455.051896,401.195776 453.302937,395.570931 451.059184,390.155686 C448.815431,384.737005 446.073448,379.524489 442.895084,374.648707 Z M315.107679,374.648707 C311.929315,379.524489 309.190768,384.737005 306.943579,390.155686 C304.699826,395.570931 302.954303,401.195776 301.751678,406.892778 C304.387143,407.5903 306.606844,409.133095 308.29739,411.170684 C309.126513,405.38967 310.740203,399.664474 313.076593,394.068748 L313.451493,393.186299 L313.451493,393.151938 L313.501316,393.021368 L313.551139,392.890797 L313.66453,392.633092 L313.688582,392.612475 C316.045725,386.661204 319.072902,381.170366 322.76324,376.249915 C320.127775,376.497312 317.468258,376.016262 315.107679,374.648707 Z M308.48981,363.024485 C303.297909,369.64579 299.123086,377.112368 295.965338,385.269596 C295.947013,385.331445 295.91647,385.381077 295.886945,385.431728 L295.845076,385.510121 L295.834768,385.551354 L295.814151,385.58915 L295.72825,385.843419 C292.192535,393.842588 289.86288,402.078845 288.856112,410.428493 C291.075812,408.260334 294.006779,406.817185 297.205759,406.528555 C298.435872,400.377991 300.301657,394.278969 302.730958,388.410163 C305.163695,382.541357 308.156511,376.906204 311.637249,371.686815 C309.579044,369.223154 308.527606,366.127256 308.48981,363.024485 Z M449.516389,363.024485 C449.478592,366.127256 448.427155,369.223154 446.365514,371.686815 C449.846251,376.906204 452.839068,382.541357 455.271804,388.410163 C457.701105,394.278969 459.570327,400.377991 460.800439,406.528555 C463.995983,406.817185 466.930386,408.260334 469.150087,410.428493 C468.177298,402.388092 465.984171,394.452837 462.662755,386.733185 L462.274513,385.843419 L462.192047,385.58915 L462.171431,385.551354 L462.157687,385.510121 C462.11989,385.427655 462.068349,385.36237 462.037424,385.269596 C458.883113,377.112368 454.704853,369.64579 449.516389,363.024485 Z M422.950354,395.035022 C420.524732,396.035389 419.514057,398.060105 419.514057,400.167044 C419.514057,401.116022 419.719618,402.085556 420.09648,402.97972 C421.285309,405.874619 424.221407,408.043223 427.733076,406.580357 C427.242666,404.974092 426.674227,403.372861 426.021286,401.789609 L425.687743,400.999541 L425.602093,400.742597 L425.581536,400.708338 L425.571258,400.667227 C425.52672,400.595283 425.482182,400.519913 425.451348,400.430839 C424.711328,398.563715 423.871953,396.765109 422.950354,395.035022 Z M335.055835,395.035022 C334.134235,396.765109 333.294861,398.563715 332.551415,400.430839 C332.533143,400.490222 332.507257,400.543514 332.478834,400.59376 L332.43493,400.667227 L332.421226,400.708338 L332.404096,400.742597 L332.318445,400.999541 C331.523609,402.839258 330.845257,404.706382 330.273112,406.580357 C333.784782,408.043223 336.72088,405.874619 337.909708,402.97972 C338.283145,402.08213 338.488706,401.116022 338.488706,400.167044 C338.488706,398.060105 337.47803,396.035389 335.055835,395.035022 Z M386.682516,394.706134 C385.517669,396.65548 383.760122,398.159457 381.588026,398.848066 C381.629138,401.533984 382.029982,405.271658 384.674869,406.306284 C387.278643,407.447114 390.204464,405.083232 392.133312,403.216108 C391.468665,401.93139 391.153471,400.533616 391.153471,399.118713 C391.153471,398.306771 391.256251,397.487978 391.458387,396.682887 C390.690958,396.292333 389.9064,395.929186 389.111563,395.600298 C388.313301,395.267984 387.501335,394.96993 386.682516,394.706134 Z M371.323672,394.706134 C370.501428,394.96993 369.692887,395.267984 368.894625,395.600298 C368.096363,395.929186 367.311804,396.292333 366.544376,396.682887 C366.746511,397.487978 366.852718,398.306771 366.852718,399.122139 C366.852718,400.533616 366.537524,401.93139 365.872876,403.216108 C367.801725,405.083232 370.727545,407.447114 373.327894,406.306284 C375.976206,405.271658 376.377051,401.533984 376.418163,398.848066 C374.246067,398.159457 372.488519,396.65548 371.323672,394.706134 Z M396.299351,399.108436 C396.299351,399.978618 396.590563,400.889912 397.279193,401.725835 C400.211865,404.13768 404.055859,401.68815 404.055859,398.7864 C404.055859,397.905939 403.699553,396.984368 402.860178,396.145019 C400.037138,393.322064 396.299351,395.984001 396.299351,399.108436 Z M355.14601,396.145019 C354.30321,396.984368 353.95033,397.905939 353.95033,398.7864 C353.95033,401.68815 357.794323,404.13768 360.723569,401.725835 C361.412199,400.889912 361.706837,399.982044 361.706837,399.108436 C361.706837,395.987427 357.965624,393.32549 355.14601,396.145019 Z M501.06386,327.54486 C500.606564,331.327041 499.960161,335.0714 498.890845,338.722924 C507.50726,344.162388 514.112261,352.376598 517.994118,361.718586 C520.528155,367.856035 521.889728,374.481728 521.889728,381.121176 C521.889728,384.597344 521.51839,388.073512 520.744769,391.484352 C524.083372,393.313553 527.18817,395.503779 530.186379,397.855608 C532.665404,393.702086 533.298054,388.462046 533.298054,383.497073 C533.298054,381.905119 533.232726,380.337233 533.143329,378.84499 C532.679157,371.370025 530.581785,364.53803 527.741738,357.681967 C524.901691,350.825904 521.556211,344.509661 516.594724,338.894842 C512.520322,334.297772 507.259702,329.109307 501.06386,327.54486 Z M255.93614,327.54486 C249.740298,329.109307 244.479678,334.297772 240.405276,338.894842 C235.443789,344.509661 232.098309,350.825904 229.258262,357.681967 C226.421653,364.53803 224.320843,371.370025 223.856671,378.84499 C223.767274,380.337233 223.701946,381.90168 223.701946,383.497073 C223.701946,388.462046 224.334596,393.702086 226.813621,397.855608 C229.81183,395.503779 232.916628,393.313553 236.255231,391.484352 C235.48161,388.073512 235.110272,384.597344 235.110272,381.124614 C235.110272,374.485167 236.471845,367.856035 239.005882,361.718586 C242.887739,352.376598 249.49274,344.162388 258.109155,338.722924 C257.039839,335.0714 256.393436,331.327041 255.93614,327.54486 Z M379.001381,386.261253 C376.472979,386.261253 375.239612,388.08384 375.239612,389.978371 C375.239612,391.907161 376.517517,393.914748 379.001381,394.154562 C381.488671,393.914748 382.76315,391.907161 382.76315,389.978371 C382.76315,388.08384 381.533209,386.261253 379.001381,386.261253 Z M517.227374,377.655322 C505.361752,377.813486 494.008439,380.84267 483.686621,386.564078 C484.535884,389.039688 485.302628,391.549681 485.99373,394.080304 C494.200985,386.127408 505.478655,384.810522 516.546588,389.445413 C517.096718,386.691297 517.364906,383.902798 517.364906,381.110861 C517.364906,379.959015 517.31677,378.80373 517.227374,377.655322 Z M239.772626,377.655322 C239.68323,378.80373 239.638532,379.959015 239.638532,381.110861 C239.638532,383.902798 239.903282,386.691297 240.453412,389.445413 C251.521345,384.810522 262.799015,386.127408 271.00627,394.080304 C271.697372,391.549681 272.464116,389.039688 273.313379,386.564078 C262.991561,380.84267 251.638248,377.813486 239.772626,377.655322 Z M381.375612,369.282415 L381.375612,381.793859 C381.375612,381.886358 381.355056,381.982284 381.344778,382.07821 C384.541254,383.054596 387.011414,385.946068 387.391702,389.313743 C388.662755,389.700872 389.920104,390.153093 391.153471,390.66698 C392.386838,391.177441 393.596222,391.746143 394.771347,392.36966 C397.34273,390.323246 400.98366,389.977748 403.891644,391.392517 L404.162065,391.530311 L404.343644,391.3042 C407.293447,388.354487 410.239823,385.411626 413.189626,382.458486 C411.52458,380.978491 409.773884,379.614977 407.893,378.378221 C405.443396,383.482835 399.739075,385.37394 394.274574,383.136818 C389.99205,381.345064 387.412258,377.645075 387.412258,373.551106 C387.412258,372.434258 387.604115,371.286576 388.004959,370.138894 C385.802029,369.686673 383.599099,369.409174 381.375612,369.282415 Z M376.630576,369.282415 C374.403664,369.409174 372.200733,369.686673 369.997803,370.138894 C370.402073,371.286576 370.59393,372.434258 370.59393,373.551106 C370.59393,377.645075 368.010712,381.345064 363.731614,383.136818 C358.267114,385.37394 352.559366,383.482835 350.109762,378.378221 C348.232304,379.614977 346.478182,380.978491 344.816563,382.458486 L349.238269,386.882628 L353.662544,391.3042 L353.840697,391.530311 C356.793926,389.957815 360.583103,390.259296 363.234841,392.36966 C364.40654,391.746143 365.619351,391.177441 366.852718,390.66698 C368.082658,390.153093 369.340007,389.700872 370.611061,389.313743 C370.994775,385.946068 373.461508,383.054596 376.66141,382.07821 L376.642139,381.93475 L376.630576,381.793859 L376.630576,369.282415 Z M510.010353,356.15878 C502.18475,366.013081 490.150651,369.809015 478.195633,372.831322 C478.685593,373.953083 479.160081,375.08258 479.617645,376.221263 L480.069515,377.363063 L480.093583,377.418076 L480.114213,377.47309 C480.774369,378.972209 481.400142,380.481643 481.99497,382.001392 C492.584978,375.688588 503.780128,369.860591 516.281838,371.29782 C515.690448,368.615909 514.865252,365.989012 513.816566,363.448074 C512.764442,360.914013 511.488828,358.469349 510.010353,356.15878 Z M246.989647,356.15878 C245.511172,358.469349 244.238996,360.914013 243.183434,363.448074 C242.134748,365.989012 241.309552,368.615909 240.718162,371.29782 C253.219872,369.860591 264.415022,375.688588 275.00503,382.001392 C275.451151,380.861581 275.914679,379.727571 276.397063,378.599363 L276.885787,377.47309 L276.909856,377.418076 L276.930485,377.363063 C277.525314,375.836437 278.151087,374.327003 278.804367,372.831322 C266.852787,369.809015 254.81525,366.013081 246.989647,356.15878 Z M392.424524,371.272872 C392.102478,372.050555 391.955159,372.797405 391.955159,373.503143 C391.955159,375.99721 393.770949,377.984241 396.02527,378.909238 C398.909978,380.11516 402.517576,379.573866 403.966782,376.05545 C402.236643,375.133879 400.441409,374.29453 398.574228,373.554532 C398.514844,373.533977 398.46155,373.507331 398.410287,373.478654 L398.334407,373.434625 L398.296721,373.424347 L398.26246,373.403792 L398.005509,373.318144 C396.162311,372.523331 394.298556,371.845 392.424524,371.272872 Z M365.581665,371.272872 C364.017116,371.749646 362.462084,372.300171 360.920534,372.930397 L359.997253,373.318144 L359.743728,373.403792 L359.709468,373.424347 L359.668356,373.434625 C359.592983,373.479162 359.517611,373.523699 359.428534,373.554532 C357.56478,374.29453 355.76612,375.133879 354.03598,376.05545 C355.485186,379.573866 359.09621,380.11516 361.980918,378.909238 C364.235239,377.984241 366.051029,375.99721 366.051029,373.503143 C366.051029,372.797405 365.90371,372.050555 365.581665,371.272872 Z M315.537187,356.533751 C313.850077,358.220861 313.00824,360.574568 313.00824,362.928275 C313.00824,365.281983 313.850077,367.63569 315.537187,369.3228 C319.148496,372.934108 324.618717,372.363721 328.315928,369.312492 C329.906828,367.384857 330.824258,364.976173 330.820832,362.598413 C330.820832,360.416509 330.051143,358.262094 328.3228,356.533751 C324.94858,353.162967 318.907971,353.162967 315.537187,356.533751 Z M429.679963,356.533751 C427.95162,358.26553 427.18194,360.416509 427.18194,362.598413 C427.18194,364.976173 428.099371,367.384857 429.690271,369.312492 C433.384045,372.363721 438.854267,372.934108 442.469011,369.3228 C444.156121,367.63569 444.997958,365.281983 444.997958,362.928275 C444.997958,360.574568 444.156121,358.220861 442.469011,356.533751 C439.094792,353.162967 433.054182,353.162967 429.679963,356.533751 Z M497.364234,343.137761 C492.818783,354.240182 483.910111,361.285354 472.484594,361.464148 C473.784277,363.743772 475.015193,366.057779 476.167028,368.409608 C487.510026,365.156933 497.680559,359.270483 506.183509,350.994383 C503.621965,347.992707 500.665015,345.338303 497.364234,343.137761 Z M259.635766,343.137761 C256.334985,345.338303 253.381473,347.992707 250.816491,350.994383 C259.319441,359.270483 269.489974,365.156933 280.832972,368.409608 C281.984807,366.057779 283.215723,363.743772 284.515406,361.464148 C273.089889,361.285354 264.181217,354.240182 259.635766,343.137761 Z M392.11342,342.751678 C391.412462,345.387143 389.869667,347.606844 387.832078,349.29739 C393.613093,350.123249 399.341389,351.736775 404.937426,354.073157 L405.8199,354.448057 L405.850824,354.448057 L405.981395,354.499598 L406.111965,354.551139 L406.369671,354.66453 L406.393723,354.688582 C412.341559,357.045725 417.835833,360.072902 422.756284,363.76324 C422.715051,363.319987 422.690998,362.880171 422.690998,362.440354 C422.690998,360.244706 423.216717,358.07311 424.354056,356.107679 C419.478274,352.929315 414.265757,350.187332 408.850512,347.943579 C403.431832,345.699826 397.806987,343.950867 392.11342,342.751678 Z M365.892778,342.751678 C360.195776,343.950867 354.570931,345.699826 349.155686,347.943579 C343.737005,350.187332 338.524489,352.929315 333.648707,356.107679 C334.789482,358.07311 335.311764,360.244706 335.311764,362.440354 C335.311764,362.880171 335.291148,363.319987 335.249915,363.76324 C339.924343,360.257419 345.113546,357.350101 350.723252,355.047178 L351.612475,354.688582 L351.633092,354.66453 L351.890797,354.551139 L352.023086,354.499598 L352.155374,354.448057 L352.186299,354.448057 C358.061977,351.908802 364.085406,350.166715 370.17412,349.29739 C368.133095,347.606844 366.593736,345.387143 365.892778,342.751678 Z M498.801449,299.195692 C489.720862,303.060394 479.588151,303.617406 469.799271,305.360648 C462.688837,306.625959 455.282709,308.719912 449.757338,313.616118 C446.270888,316.714068 443.729974,320.998248 443.729974,325.330564 C443.729974,327.338559 444.276666,329.356868 445.524774,331.275466 C446.968866,332.296654 448.388889,333.355665 449.781407,334.445621 C449.99802,328.514473 452.50799,322.861832 457.321629,318.969623 C465.009699,312.722147 475.355586,312.526162 484.632157,310.586934 C485.488297,310.404702 486.275671,310.672893 486.801733,311.19896 C487.214331,311.615 487.468766,312.189204 487.468766,312.835613 C487.468766,313.00753 487.451575,313.186324 487.413753,313.368557 C485.474544,322.645216 485.27856,332.987762 479.031144,340.679343 C475.135534,345.48959 469.482946,347.999583 463.551854,348.219637 C464.6418,349.608729 465.7008,351.028767 466.725418,352.472872 C472.776851,356.420094 479.849462,353.346212 484.384599,348.240267 C489.277319,342.714845 491.374691,335.312084 492.636552,328.198145 C494.383216,318.412611 494.936784,308.279804 498.801449,299.195692 Z M258.198551,299.195692 C262.063216,308.279804 262.620223,318.412611 264.363448,328.198145 C265.625309,335.312084 267.722681,342.714845 272.615401,348.240267 C277.150538,353.346212 284.223149,356.420094 290.274582,352.472872 C291.2992,351.028767 292.3582,349.608729 293.448146,348.219637 C287.517054,347.999583 281.864466,345.48959 277.968856,340.679343 C271.72144,332.987762 271.525456,322.645216 269.586247,313.368557 C269.548425,313.186324 269.531234,313.00753 269.531234,312.835613 C269.531234,312.189204 269.785669,311.615 270.198267,311.19896 C270.724329,310.672893 271.511703,310.404702 272.367843,310.586934 C281.644414,312.526162 291.990301,312.722147 299.678371,318.969623 C304.49201,322.861832 307.00198,328.514473 307.218593,334.445621 C308.611111,333.355665 310.031134,332.296654 311.475226,331.275466 C312.723334,329.356868 313.270026,327.338559 313.270026,325.330564 C313.270026,320.998248 310.729112,316.714068 307.242662,313.616118 C301.717291,308.719912 294.311163,306.625959 287.200729,305.360648 C277.411849,303.617406 267.279138,303.060394 258.198551,299.195692 Z M388.574269,329.852675 C390.742429,332.075812 392.185578,335.006779 392.474208,338.205759 C398.621335,339.432436 404.723794,341.301657 410.596035,343.730958 C416.461405,346.163695 422.099994,349.156511 427.315947,352.637249 C429.779609,350.579044 432.875507,349.52417 435.978277,349.48981 C429.356972,344.297909 421.890394,340.11965 413.733166,336.965338 C413.673608,336.944722 413.623212,336.914943 413.571798,336.886181 L413.492642,336.845076 L413.451409,336.834768 L413.413612,336.814151 L413.159343,336.72825 C405.160174,333.189098 396.927353,330.86288 388.574269,329.852675 Z M369.428493,329.852675 C361.388092,330.825465 353.456023,333.018591 345.733539,336.340007 L344.843419,336.72825 L344.58915,336.814151 L344.55479,336.834768 L344.513557,336.845076 C344.431091,336.882873 344.36237,336.934414 344.273032,336.965338 C336.112368,340.11965 328.64579,344.297909 322.027921,349.48981 C325.130692,349.52417 328.223154,350.579044 330.690251,352.637249 C335.906204,349.156511 341.541357,346.163695 347.410163,343.730958 C353.278969,341.301657 359.381427,339.432436 365.531991,338.205759 C365.817185,335.006779 367.26377,332.075812 369.428493,329.852675 Z M379.001381,330.247823 C374.232117,330.247823 369.961084,334.518857 369.961084,339.288121 C369.961084,344.397555 374.232117,347.861113 379.001381,348.31811 C383.774081,347.861113 388.045115,344.397555 388.045115,339.288121 C388.045115,334.518857 383.774081,330.247823 379.001381,330.247823 Z M573.875523,225.124477 C553.780156,231.381491 533.505919,229.58935 512.626276,228.206547 C491.141227,226.785905 464.55494,228.674361 453.409957,250.063096 C467.592291,256.681289 479.927448,267.193346 487.952523,280.543247 C503.00169,276.848891 517.500486,271.527506 531.345719,264.555013 C532.363903,264.042481 533.392406,264.310786 534.04253,264.95747 C534.455307,265.373687 534.713292,265.941256 534.713292,266.563861 C534.713292,266.918162 534.630737,267.286221 534.444987,267.654281 C527.472494,281.499514 522.147669,295.99831 518.456753,311.047477 C531.806654,319.072552 542.318711,331.407709 548.936904,345.590043 C566.999344,336.178724 571.154633,315.760016 571.154633,296.693152 C571.154633,293.181107 571.013601,289.713779 570.793453,286.373724 C570.163968,276.862651 569.448488,267.478851 569.448488,258.181046 C569.448488,247.063582 570.470111,236.066511 573.875523,225.124477 Z M184.124477,225.124477 C187.529889,236.066511 188.551512,247.060142 188.551512,258.177606 C188.551512,267.475411 187.836032,276.862651 187.206547,286.373724 C186.986399,289.713779 186.845367,293.177667 186.845367,296.693152 C186.845367,315.756576 191.000656,336.178724 209.063096,345.590043 C215.681289,331.407709 226.193346,319.072552 239.543247,311.047477 C235.852331,295.99831 230.527506,281.499514 223.555013,267.654281 C223.369263,267.286221 223.286708,266.918162 223.286708,266.563861 C223.286708,265.941256 223.544693,265.373687 223.95747,264.95747 C224.607594,264.310786 225.636097,264.042481 226.654281,264.555013 C240.499514,271.527506 254.99831,276.848891 270.047477,280.543247 C278.072552,267.193346 290.404269,256.681289 304.590043,250.063096 C293.44506,228.674361 266.858773,226.785905 245.370284,228.206547 C224.494081,229.58935 204.219844,231.381491 184.124477,225.124477 Z M298.468084,324.192472 C298.560919,324.752922 298.605617,325.323688 298.605617,325.894453 C298.605617,329.408443 296.94835,333.022146 294.486517,335.484002 C291.622401,338.348144 287.200729,340.122331 283.195094,339.469045 C286.953171,342.866132 292.028122,344.420264 297.446905,343.436897 C298.230841,342.563557 299.038844,341.703971 299.86404,340.865014 C300.706427,340.036373 301.566005,339.228361 302.439337,338.444418 C302.635321,337.364777 302.731594,336.29889 302.731594,335.257071 C302.731594,331.055411 301.191229,327.201025 298.468084,324.192472 Z M458.531916,324.192472 C455.808771,327.201025 454.268406,331.055411 454.268406,335.257071 C454.268406,336.29889 454.364679,337.364777 454.560663,338.444418 C455.433995,339.228361 456.293573,340.036373 457.13596,340.865014 C457.961156,341.703971 458.769159,342.563557 459.553095,343.436897 C464.971878,344.420264 470.046829,342.866132 473.804906,339.469045 C469.799271,340.122331 465.377599,338.348144 462.513483,335.484002 C460.05165,333.022146 458.394383,329.408443 458.394383,325.894453 C458.394383,325.323688 458.439081,324.752922 458.531916,324.192472 Z M275.826787,316.824095 C276.414738,321.018878 277.171167,325.206784 278.7356,329.147129 C279.901189,332.05597 281.458745,334.951058 284.989893,335.085154 C287.193853,335.167674 289.741643,333.792335 291.268255,332.265709 C292.750168,330.783782 294.091111,328.339118 294.091111,326.179836 C294.091111,326.117946 294.087672,326.052617 294.087672,325.990727 C293.95014,322.456107 291.058518,320.901974 288.149704,319.732936 C284.209396,318.171927 280.02153,317.412052 275.826787,316.824095 Z M481.173213,316.824095 C476.97847,317.412052 472.790604,318.171927 468.850296,319.732936 C465.941482,320.901974 463.04986,322.456107 462.912328,325.990727 C462.912328,326.052617 462.908889,326.117946 462.908889,326.179836 C462.908889,328.339118 464.249832,330.783782 465.731745,332.265709 C467.258357,333.792335 469.806147,335.167674 472.010107,335.085154 C475.541255,334.951058 477.098811,332.05597 478.2644,329.147129 C479.828833,325.206784 480.585262,321.018878 481.173213,316.824095 Z M447.006687,291.813562 C438.730665,300.316593 432.844272,310.487222 429.588188,321.830328 C431.939995,322.982174 434.257419,324.21654 436.533583,325.516235 C436.715813,314.090609 443.75748,305.181853 454.863235,300.632921 C452.659275,297.332108 450.004897,294.378569 447.006687,291.813562 Z M309.993313,291.813562 C306.995103,294.378569 304.340725,297.332108 302.136765,300.632921 C313.24252,305.181853 320.284187,314.090609 320.466417,325.516235 C322.742581,324.21654 325.060005,322.982174 327.411812,321.830328 C324.155728,310.487222 318.269335,300.316593 309.993313,291.813562 Z M426.703443,281.718577 C426.851291,283.014833 426.923495,284.297336 426.923495,285.569525 C426.920057,296.53785 421.655998,306.515932 415.996533,316.00233 C417.136334,316.448456 418.270333,316.913922 419.39853,317.397278 L420.524793,317.886544 L420.579806,317.907174 L420.634819,317.931243 C422.16143,318.526076 423.67085,319.148417 425.169955,319.801703 C428.192233,307.85001 431.984693,295.815797 441.84234,287.986682 C439.528354,286.511632 437.083713,285.236005 434.549676,284.183871 C432.0122,283.135175 429.38189,282.306534 426.703443,281.718577 Z M330.296557,281.718577 C327.61811,282.306534 324.9878,283.135175 322.450324,284.183871 C319.916287,285.236005 317.471646,286.511632 315.15766,287.986682 C325.015307,295.815797 328.811205,307.85001 331.830045,319.801703 C332.954374,319.311739 334.084504,318.839181 335.223339,318.382579 L336.365181,317.931243 L336.420194,317.907174 L336.475207,317.886544 C337.974312,317.226381 339.483732,316.597164 341.003467,316.00233 C335.344002,306.512494 330.076505,296.53785 330.076505,285.569525 C330.076505,284.300775 330.148709,283.014833 330.296557,281.718577 Z M336.654,280.769593 C336.8156,292.635327 339.844755,303.988747 345.562671,314.314102 C348.041695,313.461392 350.551665,312.698079 353.082264,312.006971 C348.158598,306.925095 345.775847,300.667304 345.775847,294.010666 C345.775847,289.915595 346.680123,285.669237 348.443978,281.450386 C344.555245,280.676758 340.590869,280.46358 336.654,280.769593 Z M408.556022,281.450386 C410.319877,285.669237 411.224153,289.915595 411.224153,294.014104 C411.220715,300.667304 408.841402,306.925095 403.921175,312.006971 C406.448335,312.698079 408.958305,313.461392 411.437329,314.314102 C417.155245,303.988747 420.1844,292.635327 420.346,280.769593 C416.412569,280.46358 412.444755,280.676758 408.556022,281.450386 Z M378.501719,249.367174 C374.812408,258.520052 368.03893,266.077538 362.351958,274.233296 C358.215667,280.154129 354.464466,286.872658 354.017485,294.241035 C353.989979,294.663951 353.979664,295.086868 353.979664,295.509785 C353.979664,301.922301 356.878162,308.324502 363.51067,309.720471 C365.253895,309.421335 367.007435,309.166897 368.760976,308.95372 C365.188567,305.109648 363.036183,300.148114 363.036183,294.79117 C363.036183,294.093186 363.074004,293.388325 363.149647,292.676587 C364.170826,282.822286 371.346588,275.371389 376.535004,267.439123 C377.012929,266.706755 377.755605,266.338852 378.501719,266.338852 C379.244395,266.338852 379.987071,266.706755 380.464996,267.439123 C385.653412,275.371389 392.832612,282.822286 393.850353,292.676587 C393.925996,293.388325 393.963817,294.093186 393.963817,294.79117 C393.963817,300.148114 391.811433,305.109648 388.239024,308.95372 C389.992565,309.166897 391.746105,309.421335 393.48933,309.720471 C400.121838,308.324502 403.020336,301.922301 403.020336,295.509785 C403.020336,295.086868 403.010021,294.663951 402.982515,294.241035 C402.535534,286.872658 398.784333,280.154129 394.648042,274.233296 C388.96107,266.077538 382.187592,258.520052 378.501719,249.367174 Z M389.301463,295.516661 C386.929027,298.810597 382.552053,300.684496 378.501719,300.684496 C374.451385,300.684496 370.070973,298.810597 367.698537,295.516661 C367.952972,300.577907 370.442311,305.264374 374.970571,308.403584 C376.143036,308.338256 377.318939,308.300434 378.501719,308.290119 C379.681061,308.300434 380.856964,308.338256 382.029429,308.403584 C386.557689,305.264374 389.047028,300.577907 389.301463,295.516661 Z M337.847094,264.856925 C330.368762,265.317663 323.536832,267.418493 316.680834,270.255129 C309.828274,273.098642 303.512091,276.444153 297.897324,281.402249 C293.29686,285.476689 288.111883,290.740798 286.54745,296.93326 C290.326157,297.393999 294.070481,298.040408 297.725408,299.106295 C303.161383,290.489799 311.378953,283.884735 320.720852,280.002842 C330.069628,276.145017 340.549609,275.003486 350.486337,277.252164 C352.31552,273.91353 354.505726,270.808703 356.854094,267.810465 C351.369983,264.537159 343.981047,264.485584 337.847094,264.856925 Z M400.145906,267.810465 C402.494274,270.808703 404.68448,273.91353 406.513663,277.252164 C416.450391,275.003486 426.930372,276.145017 436.279148,280.002842 C445.621047,283.884735 453.838617,290.489799 459.274592,299.106295 C462.929519,298.040408 466.673843,297.393999 470.45255,296.93326 C468.888117,290.740798 463.70314,285.476689 459.102676,281.402249 C453.487909,276.444153 447.171726,273.098642 440.319166,270.255129 C433.463168,267.418493 426.631238,265.317663 419.152906,264.856925 C413.018953,264.485584 405.630017,264.537159 400.145906,267.810465 Z M378.501719,274.295186 C375.947052,277.678519 373.52304,281.175318 371.845143,285.067526 C371.167795,286.645727 370.579844,288.30301 370.579844,289.90528 C370.579844,291.229043 370.982126,292.514985 372.068634,293.687461 C373.567739,295.303484 376.342458,296.132125 378.501719,296.132125 C380.657542,296.132125 383.432261,295.303484 384.931366,293.687461 C386.017874,292.514985 386.420156,291.229043 386.420156,289.90528 C386.420156,288.30301 385.832205,286.645727 385.154857,285.067526 C383.47696,281.175318 381.052948,277.678519 378.501719,274.295186 Z M379,144.40247 C369.213742,163.035917 353.610767,176.107193 337.870199,189.893949 C324.265753,201.809449 309.766956,217.921516 309.766956,236.407052 C309.766956,239.929417 310.293247,243.537777 311.452463,247.218373 C326.161088,241.86947 342.317872,240.582981 357.428955,244.349572 C365.46091,231.095986 371.948391,217.078763 376.808841,202.356379 C377.163142,201.276279 378.081571,200.739668 379,200.739668 C379.918429,200.739668 380.833418,201.276279 381.191159,202.356379 C386.051609,217.078763 392.53909,231.095986 400.567605,244.349572 C415.682128,240.582981 431.838912,241.86947 446.547537,247.218373 C447.706753,243.537777 448.233044,239.929417 448.233044,236.407052 C448.233044,217.924956 433.734247,201.809449 420.129801,189.893949 C404.385793,176.107193 388.782818,163.035917 379,144.40247 Z" style="mix-blend-mode: darken;"></path>
                </g>
            </g>
        </g>
    </g>
</svg>