<?xml version="1.0" encoding="UTF-8"?>
<!-- Created with EazyDraw for Mac ( http://www.eazydraw.com/ ) -->

<svg
    version="1.0"
    xmlns:dc="http://purl.org/dc/elements/1.1/"
    xmlns:cc="http://creativecommons.org/ns#"
    xmlns:rdf="http://www.w3.org/1999/02/22-rdf-syntax-ns#"
    xmlns:svg="http://www.w3.org/2000/svg"
    xmlns:xlink="http://www.w3.org/1999/xlink"
    xmlns="http://www.w3.org/2000/svg"
    width="179.703541762"
    height="642.17963072"
    viewBox="0, 0, 179.703541762, 642.17963072"
    preserveAspectRatio="none"
    id="svg2">
   <defs
       id="defs_C3288E85"/>
   <metadata
       id="metadata7">
      <rdf:RDF>
         <cc:Work
             rdf:about="">
            <dc:format>image/svg+xml</dc:format>
            <dc:type rdf:resource="http://purl.org/dc/dcmitype/StillImage"/>
            <dc:title></dc:title>
         </cc:Work>
      </rdf:RDF>
   </metadata>
   <g
       id="layer_Paper"
       style="fill:#000000;fill-opacity:1;stroke:#000000;stroke-opacity:1;fill-rule:nonzero;stroke-linecap:square;stroke-linejoin:miter;stroke-width:1;stroke-miterlimit:10">
      <path
          style="fill:none;stroke-width:3"
          id="BA17E7D4"
          d="M119.14654711,572.372009195 C117.693206073,573.092516793 116.124329683,573.86965108 114.694917973,574.639384774 C113.463689115,575.302397628 112.114539518,576.077352137 110.972065607,576.893428411 C110.130205761,577.494774174 109.193105449,578.263925679 108.585657242,579.12302369
C108.127541285,579.77092503 107.827286027,580.508065129 107.926855955,581.321014834 C108.030262907,582.165292344 108.542008256,582.89663741 109.10695218,583.485365943 C109.895120379,584.306716679 110.974535425,585.039074707 111.939334641,585.619490806
C113.199949996,586.377867716 114.644186315,587.101073277 115.969721411,587.731699871 C117.444576689,588.433365909 119.064207672,589.156709114 120.54975366,589.833853947 C121.986749941,590.488868746 123.540035698,591.20916586 124.942029896,591.939442754
C126.103330431,592.544346075 127.386659184,593.271847844 128.439565136,594.061399585 C129.193262683,594.626581318 130.017841861,595.362187523 130.480322588,596.210006111 C130.857565428,596.901566803 130.972433861,597.624148783 130.738263711,598.391226747
C130.475022985,599.253532037 129.81685743,600.012772199 129.176166512,600.605742416 C128.269572669,601.444810259 127.102079593,602.217804142 126.051655518,602.848840241 C124.732203114,603.641493531 123.246365293,604.417784494 121.875466557,605.111177031
C120.380808869,605.86716612 118.823365153,606.62430379 117.328707465,607.380292879 C115.957808729,608.073685416 114.471970908,608.849976379 113.152518503,609.642629669 C112.102094429,610.273665768 110.934601353,611.046659651 110.02800751,611.885727494
C109.387316592,612.47869771 108.729151037,613.237937873 108.465910311,614.100243163 C108.231740161,614.867321127 108.346608594,615.589903106 108.723851434,616.281463799 C109.186332161,617.129282387 110.010911339,617.864888592 110.764608886,618.430070325
C111.817514838,619.219622066 113.100843591,619.947123835 114.262144126,620.552027156 C115.664138324,621.28230405 117.217424081,622.002601164 118.654420362,622.657615963 C120.191273719,623.358147834 121.71035975,624.034679099 123.234452611,624.759770039
C124.559987707,625.390396632 126.004224026,626.113602194 127.264839381,626.871979103 C128.229638597,627.452395203 129.309053643,628.184753231 130.097221842,629.006103967 C130.662165766,629.5948325 131.173911115,630.326177566 131.277318067,631.170455075
C131.376887994,631.983404781 131.076632737,632.720544879 130.61851678,633.36844622 C130.011068573,634.227544231 129.073968261,634.996695736 128.232108415,635.598041499 C127.089634504,636.414117773 125.740484907,637.189072281 124.509256049,637.852085136
C123.079844339,638.62181883 121.510967949,639.398953117 120.057626912,640.119460715"/>
      <path
          style="fill:none;stroke-width:3"
          id="E2A8BAD4"
          d="M124.015881271,240.161001718 C84.7415998324,373.430562719 123.779462412,335.771107407 125.951143672,385.940929067 C131.152917685,506.11145285 121.14462724,499.821096148 121.14462724,571.292319169"/>
      <polygon
          style="fill:#FFC312;stroke-width:3"
          id="3AA990E4"
          points="114.419530244,220.611039352 136.643326578,220.611039352 131.087377495,237.791053992 119.975479327,237.791053992"/>
      <g
          id="C3D51A85">
         <path
             style="fill:#FFC312;stroke-width:2.929333530931"
             id="D65B8B05"
             d="M135.885617738,219.412895283 C188.130062599,171.827800732 192.671112169,92.0872845519 146.028335836,41.3074674474 C120.196994993,13.1849827515 82.5447654967,-1.330580708074 43.8179240249,1.911772636626
C-8.426520835822,49.4968671878 -12.9675704067,129.237383368 33.6752059266,180.017200472 C59.5065467707,208.139685168 97.1587762657,222.655248628 135.875742786,219.417214715"/>
      </g>
      <g
          id="54D51A85">
         <path
             style="fill:#c23616;stroke-width:1.999999999999"
             id="D42852F4"
             d="M121.868810882,191.980190453 C93.6914093921,181.82624286 78.3516681611,174.128940483 66.2001004621,162.537371633 C55.9405366501,149.77407665 21.783498136,127.552739362 53.6871545771,92.7088977298 C73.9728968391,71.4969618865 80.7566969921,80.5993108898 92.5315642991,108.909616676
C94.0948850601,98.5870688398 63.4341838211,72.7743792748 125.600791137,72.6417441229 C159.285993244,92.5803869888 140.608272556,155.987302316 121.641395534,191.652843163"/>
      </g>
      <path
          style="fill:white;stroke-width:2"
          id="99C49705"
          d="M93.1561886264,50.6554653225 L68.8319515434,50.6554653225 L68.8319515434,34.0568302348 C76.9400305714,40.4698480601 85.0481095984,27.6438124096 93.1561886264,34.0568302348 z"/>
   </g>
</svg>
