<?xml version="1.0" encoding="UTF-8"?>
<!-- Created with EazyDraw for Mac ( http://www.eazydraw.com/ ) -->

<svg
    version="1.1"
    baseProfile="tiny"
    xmlns:dc="http://purl.org/dc/elements/1.1/"
    xmlns:cc="http://creativecommons.org/ns#"
    xmlns:rdf="http://www.w3.org/1999/02/22-rdf-syntax-ns#"
    xmlns:svg="http://www.w3.org/2000/svg"
    xmlns:xlink="http://www.w3.org/1999/xlink"
    xmlns="http://www.w3.org/2000/svg"
    width="339.26171875"
    height="292.046877453"
    viewBox="0, 0, 339.26171875, 292.046877453"
    preserveAspectRatio="none"
    id="svg2">
   <defs
       id="defs_2093D3BF"/>
   <metadata
       id="metadata7">
      <rdf:RDF>
         <cc:Work
             rdf:about="">
            <dc:format>image/svg+xml</dc:format>
            <dc:type rdf:resource="http://purl.org/dc/dcmitype/StillImage"/>
            <dc:title></dc:title>
         </cc:Work>
      </rdf:RDF>
   </metadata>
   <g
       id="layer_Paper"
       style="fill:#000000;stroke:#000000;fill-rule:nonzero;stroke-linecap:square;stroke-linejoin:miter;stroke-width:1;stroke-miterlimit:10">
      <path
          style="fill:#F6AA9D;stroke:none;fill-rule:evenodd"
          id="5518448E"
          d="M39.9154599978,159.304510221 L308.278807277,159.304510221 L308.278807277,188.58823252 C218.824358184,141.944000051 129.369909091,235.23246499 39.9154599978,188.58823252 z"/>
      <path
          style="fill:#EBB0B3;stroke:none;fill-rule:evenodd"
          id="8E01EA8E"
          d="M270.939488486,160.337089536 L72.548797457,160.337089536 L72.548797457,122.591779207 C138.6790278,159.596620401 204.809258143,85.5869380123 270.939488486,122.591779207 z"/>
      <path
          style="fill:#EAAEB6;stroke:none;fill-rule:evenodd"
          id="5E136D8E"
          d="M73.7629725748,74.3500269904 L272.153663604,74.3500269904 L272.153663604,99.3420356294 C206.023433261,64.3357626374 139.893202918,134.348308621 73.7629725748,99.3420356294 z"/>
      <path
          style="fill:#D5C096;stroke:none;fill-rule:evenodd"
          id="21F0C19E"
          d="M0,240.18009511 C0,251.297485188 84.815429688,262.414875266 169.630859375,262.414875266 C254.446289063,262.414875266 339.26171875,251.297485188 339.26171875,240.18009511 C339.26171875,229.062705031 254.446289063,217.945314953 169.630859375,217.945314953
C84.815429688,217.945314953 0,229.062705031 0,240.18009511 C0,250.057429172 0,259.934763234 0,269.812097297 C0,280.929487375 84.815429688,292.046877453 169.630859375,292.046877453 C254.446289063,292.046877453 339.26171875,280.929487375 339.26171875,269.812097297
C339.26171875,259.934763234 339.26171875,250.057429172 339.26171875,240.18009511"/>
      <path
          style="fill:#E948AA;stroke:none;fill-rule:evenodd"
          id="9D8B79AE"
          d="M167.456156503,0.866078960805 C172.242614837,0.866078960805 177.02907317,0.866078960805 181.815531503,0.866078960805 C182.046976816,0.866078960805 182.278422128,1.097524273323 182.278422128,1.328969585841
C182.278422128,25.8035789606 182.278422128,50.2781883356 182.278422128,74.7527977106 C182.278422128,74.8719383356 182.159281503,74.9910789606 182.040140878,74.9910789606 C177.187276295,74.9910789606 172.334411712,74.9910789606 167.481547128,74.9910789606
C167.411234628,74.9910789606 167.340922128,74.9207664606 167.340922128,74.8504539606 C167.340922128,50.2274070856 167.340922128,25.6043602106 167.340922128,0.981313335786 C167.340922128,0.923696148296 167.398539316,0.866078960805 167.456156503,0.866078960805
z"/>
      <path
          style="fill:#DCDE2B;stroke:none;fill-rule:evenodd"
          id="C7D84EAE"
          d="M213.060658774,0 C217.847117108,0 222.633575441,0 227.420033774,0 C227.651479087,0 227.882924399,0.231445312518 227.882924399,0.462890625036 C227.882924399,24.9374999998 227.882924399,49.4121093748 227.882924399,73.8867187498
C227.882924399,74.0058593748 227.763783774,74.1249999998 227.644643149,74.1249999998 C222.791778566,74.1249999998 217.938913983,74.1249999998 213.086049399,74.1249999998 C213.015736899,74.1249999998 212.945424399,74.0546874998 212.945424399,73.9843749998
C212.945424399,49.3613281248 212.945424399,24.7382812498 212.945424399,0.115234374981 C212.945424399,0.057617187491 213.003041587,0 213.060658774,0 z"/>
      <path
          style="fill:#106DF2;stroke:none;fill-rule:evenodd"
          id="0E694FAE"
          d="M117.431338913,0.288110795932 C122.217797247,0.288110795932 127.00425558,0.288110795932 131.790713913,0.288110795932 C132.022159226,0.288110795932 132.253604538,0.51955610845 132.253604538,0.751001420968
C132.253604538,25.2256107958 132.253604538,49.7002201708 132.253604538,74.1748295457 C132.253604538,74.2939701708 132.134463913,74.4131107957 132.015323288,74.4131107957 C127.162458705,74.4131107957 122.309594122,74.4131107957 117.456729538,74.4131107957
C117.386417038,74.4131107957 117.316104538,74.3427982958 117.316104538,74.2724857957 C117.316104538,49.6494389207 117.316104538,25.0263920457 117.316104538,0.403345170914 C117.316104538,0.345727983423 117.373721726,0.288110795932 117.431338913,0.288110795932
z"/>
      <path
          style="fill:#F6ABA3;stroke:none;fill-rule:evenodd"
          id="0220D23F"
          d="M308.032828189,246.048404866 L39.6694809099,246.048404866 L39.6694809099,200.832190181 C129.123930003,249.973201402 218.578379096,151.691178961 308.032828189,200.832190181 z"/>
   </g>
</svg>
