<?xml version="1.0" encoding="UTF-8"?>
<!-- Created with EazyDraw for Mac ( http://www.eazydraw.com/ ) -->

<svg
    version="1.0"
    xmlns:dc="http://purl.org/dc/elements/1.1/"
    xmlns:cc="http://creativecommons.org/ns#"
    xmlns:rdf="http://www.w3.org/1999/02/22-rdf-syntax-ns#"
    xmlns:svg="http://www.w3.org/2000/svg"
    xmlns:xlink="http://www.w3.org/1999/xlink"
    xmlns="http://www.w3.org/2000/svg"
    width="432.366402559"
    height="392.281176705"
    viewBox="0, 0, 432.366402559, 392.281176705"
    preserveAspectRatio="none"
    id="svg2">
   <defs
       id="defs_8F3F59C4"/>
   <metadata
       id="metadata7">
      <rdf:RDF>
         <cc:Work
             rdf:about="">
            <dc:format>image/svg+xml</dc:format>
            <dc:type rdf:resource="http://purl.org/dc/dcmitype/StillImage"/>
            <dc:title></dc:title>
         </cc:Work>
      </rdf:RDF>
   </metadata>
   <g
       id="layer_Paper"
       style="fill:#000000;fill-opacity:1;stroke:#000000;stroke-opacity:1;fill-rule:nonzero;stroke-linecap:square;stroke-linejoin:miter;stroke-width:1;stroke-miterlimit:10">
      <path
          style="fill:#FDA7DF;stroke-width:3"
          id="249A76F3"
          d="M417.337194292,177.371425014 C429.254795651,153.63344949 337.106550706,132.591801745 292.749121475,129.948596396 C206.593428617,124.814683268 19.6366397374,127.528511517 77.0395567928,173.1625757 C113.914155796,202.477075798 143.856749358,94.8227701692 159.153133825,184.392194906
C163.764377134,211.393765859 162.065465621,248.848669071 210.231078564,168.226849903 C216.032494918,158.516172271 237.100457649,170.417422585 239.777657098,184.917653449 C241.661386895,195.12029896 264.242265241,186.543646614 268.874783709,173.866004555
C272.365478424,164.313149354 308.1289501,189.585889128 294.989894524,200.768250307 C285.229555508,209.075060144 313.539753259,223.998179103 329.003634336,218.697870224 C339.731272207,215.020928195 348.046316563,203.36047812 348.756069244,190.998405103
C349.389243638,179.970129629 372.865473158,197.37845949 375.375347868,210.737400353 C378.684791164,228.352087296 415.115227621,200.248278199 417.948215588,177.895088716"/>
      <polyline
          style="fill:none;stroke-width:3"
          id="15A77FF3"
          points="65.4554220345,159.107667091 66.9177828473,370.673824102 416.545143935,371.484562124 418.26869435,177.775887306"/>
      <polyline
          style="fill:#5352ed;stroke-width:3"
          id="C4F86604"
          points="66.6833304886,372.013981593 53.8312645354,389.48820491 429.305659309,390.721281189 415.325750391,372.115587983"/>
      <rect
          style="fill:#D980FA;stroke-width:3"
          id="FC9AFB04"
          x="240.085081034"
          y="50.4755014362"
          width="15.8220376522"
          height="76.6705560532"/>
      <rect
          style="fill:#F79F1F;stroke-width:3"
          id="6AC29F04"
          x="208.848420702"
          y="73.6970114791"
          width="15.8220376522"
          height="54.8838012494"/>
      <rect
          style="fill:#F79F1F;stroke-width:3"
          id="3C24B014"
          x="269.010739944"
          y="74.0844393125"
          width="15.8220376522"
          height="54.8838012494"/>
      <path
          style="fill:#eccc68"
          id="4104C434"
          d="M217.401217569,73.721348096 C215.151453144,70.9561382294 213.250952847,66.0392364712 217.866903072,66.4102973052 C188.423287549,64.7706922997 213.095566213,27.4228826909 216.230901926,25.1900425074 C217.980979387,34.0810304499 232.357478538,56.2826391575 217.87741341,66.4905017587"/>
      <path
          style="fill:#eccc68"
          id="681CED34"
          d="M246.907007444,49.4379628216 C244.657243019,46.6727529546 242.756742722,41.7558511966 247.372692947,42.1269120306 C217.929077424,40.4873070246 242.601356088,3.139497416611 245.736691801,0.906657232611 C247.486769263,9.797645175611 261.863268413,31.9992538826 247.383203285,42.2071164836"/>
      <path
          style="fill:#eccc68"
          id="D56C3E34"
          d="M277.303571477,73.0500137374 C275.053807052,70.2848038704 273.153306755,65.3679021124 277.76925698,65.7389629464 C248.325641457,64.0993579404 272.997920121,26.7515483324 276.133255834,24.5187081484 C277.883333296,33.4096960914 292.259832446,55.6113047984 277.779767318,65.8191673994"/>
      <circle
          style="fill:#2f3542;stroke-width:3"
          id="2DEA6384"
          cx="338.731251867"
          cy="272.400282386"
          r="27.7340862994"/>
      <circle
          style="fill:#2f3542;stroke-width:3"
          id="E48C1D84"
          cx="166.981993447"
          cy="271.728117035"
          r="27.7340862994"/>
      <circle
          style="fill:#FFFFFF;stroke-width:3"
          id="1975AE84"
          cx="156.162743497"
          cy="263.04007051"
          r="6.71561758435"/>
      <circle
          style="fill:#FFFFFF;stroke-width:3"
          id="7D897194"
          cx="172.573104558"
          cy="271.616910673"
          r="5.15635028985"/>
      <circle
          style="fill:#FFFFFF;stroke-width:3"
          id="78031794"
          cx="334.910021188"
          cy="267.104868078"
          r="6.715617584462"/>
      <circle
          style="fill:#FFFFFF;stroke-width:3"
          id="1EFAE794"
          cx="352.457691025"
          cy="274.009110741"
          r="5.15635028985"/>
      <path
          style="fill:#2f3542;stroke-width:3"
          id="1A065CA4"
          d="M269.987872557,304.414405868 C269.499460509,319.91234948 252.230371816,317.774362345 238.096860375,304.633975317 C224.668184251,320.048876638 230.037559956,338.933294961 255.092714816,343.366224192 C283.064293678,344.725142928 280.240709467,326.195413715 270.201884557,304.545303039"/>
      <circle
          style="fill:#FDA7DF;stroke-width:3"
          id="C2A601B4"
          cx="254.571467175"
          cy="329.948420364"
          r="6.71561758435"/>
      <path
          style="fill:none;stroke-width:3"
          id="29981BB4"
          d="M65.987097834,265.44580485 C64.8244694241,271.294799618 55.8558364181,319.465500935 44.5116697105,319.465500935 C33.167503003,319.465500935 24.198869997,271.294799618 23.0362415871,265.44580485"/>
      <path
          style="fill:none;stroke-width:5"
          id="2DC4BDB4"
          d="M21.7944973118,263.828460447 C18.6646583437,264.312927298 15.5160194744,264.559512854 12.3487475913,264.559512854 C9.181475708172,264.559512854 6.032836838888,264.312927298 2.902997870787,263.828460447"/>
   </g>
</svg>
