<?xml version="1.0" encoding="iso-8859-1"?>
<!-- Generator: Adobe Illustrator 19.0.0, SVG Export Plug-In . SVG Version: 6.00 Build 0)  -->
<svg version="1.1" id="Capa_1" xmlns="http://www.w3.org/2000/svg" xmlns:xlink="http://www.w3.org/1999/xlink" x="0px" y="0px"
	 viewBox="0 0 350 350" style="enable-background:new 0 0 350 350;" xml:space="preserve">
<g id="XMLID_17_">
	<path id="XMLID_85_" style="fill:#CCF8F3;" d="M175,230h-60v30c0,11.046-8.954,20-20,20s-20-8.954-20-20v-30H15v80h160V230z"/>
	<rect id="XMLID_86_" x="175" y="230" style="fill:#00D7DF;" width="160" height="80"/>
	<polygon id="XMLID_87_" style="fill:#B02768;" points="195,150 175,150 175,230 335,230 335,150 	"/>
	<path id="XMLID_88_" style="fill:#EA348B;" d="M75,260c0,11.046,8.954,20,20,20s20-8.954,20-20v-30h60v-80h-20H15v80h60V260z"/>
	<path id="XMLID_89_" style="fill:#CCF8F3;" d="M175,90c-7.685,0-14.692-2.893-20-7.645V150h20V90z"/>
	<path id="XMLID_90_" style="fill:#00D7DF;" d="M175,150h20V82.355C189.692,87.107,182.685,90,175,90V150z"/>
	<path id="XMLID_34_" style="fill:#FFDA44;" d="M175,0.001V0c0,0-30,43.432-30,60c0,8.883,3.864,16.862,10,22.355
		C160.308,87.107,167.315,90,175,90V0.001z"/>
	<path id="XMLID_91_" style="fill:#FF9811;" d="M175,90c7.685,0,14.692-2.893,20-7.645c6.136-5.493,10-13.472,10-22.355
		c0-16.568-30-60-30-60v0.001V90z"/>
	<rect id="XMLID_92_" x="15" y="310" style="fill:#786145;" width="160" height="40"/>
	<rect id="XMLID_93_" x="175" y="310" style="fill:#50412E;" width="160" height="40"/>
</g>
<g>
</g>
<g>
</g>
<g>
</g>
<g>
</g>
<g>
</g>
<g>
</g>
<g>
</g>
<g>
</g>
<g>
</g>
<g>
</g>
<g>
</g>
<g>
</g>
<g>
</g>
<g>
</g>
<g>
</g>
</svg>
