<?xml version="1.0" encoding="iso-8859-1"?>
<!-- Generator: Adobe Illustrator 19.0.0, SVG Export Plug-In . SVG Version: 6.00 Build 0)  -->
<svg xmlns="http://www.w3.org/2000/svg" xmlns:xlink="http://www.w3.org/1999/xlink" version="1.1" id="Capa_1" x="0px" y="0px" viewBox="0 0 505 505" style="enable-background:new 0 0 505 505;" xml:space="preserve" width="512" height="512">
<g>
	<polyline style="fill:#B1DCEE;" points="124.627,283.212 497.5,283.212 497.5,372.303 7.5,372.303 7.5,283.212 104.625,283.212     "/>
	<rect x="198.497" y="372.303" style="fill:#FFA317;" width="108.006" height="94.206"/>
	<polyline style="fill:#B1DCEE;" points="104.625,283.212 7.5,283.212 7.5,37.197 497.5,37.197 497.5,283.212 124.627,283.212  "/>
	<path style="fill:#214245;" d="M0,29.697v246.015v15v89.091h190.997v80.5h-74.608v15h272.223v-15h-74.608v-80.5H505v-89.091v-15   V29.697H0z M299.003,459.009h-93.006v-79.206h93.006V459.009z M490,290.712v74.091H314.003H190.997H15v-74.091h89.625v-15H15   V44.697h475v231.015H124.627v15H490z"/>
</g>















</svg>
