<?xml version="1.0" encoding="iso-8859-1"?>
<!-- Generator: Adobe Illustrator 19.0.0, SVG Export Plug-In . SVG Version: 6.00 Build 0)  -->
<svg version="1.1" id="Layer_1" xmlns="http://www.w3.org/2000/svg" xmlns:xlink="http://www.w3.org/1999/xlink" x="0px" y="0px"
	 viewBox="0 0 505 505" style="enable-background:new 0 0 505 505;" xml:space="preserve">
<circle style="fill:#324A5E;" cx="252.5" cy="252.5" r="252.5"/>
<path style="fill:#2B3B4E;" d="M39.7,388.3C84.6,458.5,163.1,505,252.5,505s167.9-46.5,212.8-116.7H39.7z"/>
<rect x="137.6" y="202.2" style="fill:#FFFFFF;" width="229.9" height="186.1"/>
<polygon style="fill:#84DBFF;" points="252.5,84.4 90,202.2 415,202.2 "/>
<g>
	<path style="fill:#FF7058;" d="M179.1,287.1c-0.9,0.8-1.4,1.7-1.4,3c0,1.2,0.6,2.2,1.7,3c1.1,0.7,3.7,1.6,7.8,2.6s7.2,2.5,9.4,4.5
		s3.4,4.9,3.4,8.7c0,3.8-1.4,6.9-4.3,9.3c-2.9,2.4-6.6,3.6-11.3,3.6c-6.8,0-12.8-2.5-18.3-7.5l5.7-7c4.6,4,8.9,6,12.8,6
		c1.7,0,3.1-0.4,4.1-1.1c1-0.8,1.5-1.8,1.5-3.1s-0.5-2.3-1.6-3.1c-1.1-0.8-3.2-1.5-6.3-2.3c-5-1.2-8.6-2.7-10.9-4.6
		c-2.3-1.9-3.5-4.9-3.5-8.9c0-4.1,1.5-7.2,4.4-9.4c2.9-2.2,6.5-3.3,10.9-3.3c2.9,0,5.7,0.5,8.6,1.5c2.8,1,5.3,2.4,7.5,4.2l-4.8,7
		c-3.7-2.8-7.5-4.2-11.5-4.2C181.2,286,180,286.4,179.1,287.1z"/>
	<path style="fill:#FF7058;" d="M234.6,278.6h9.5v42.7h-9.5v-16.8h-17v16.8h-9.5v-42.7h9.5v17.9h17V278.6z"/>
	<path style="fill:#FF7058;" d="M290.5,315.4c-4.3,4.2-9.6,6.3-15.9,6.3s-11.6-2.1-15.9-6.3c-4.3-4.2-6.5-9.5-6.5-15.7
		c0-6.3,2.2-11.5,6.5-15.7s9.6-6.3,15.9-6.3s11.6,2.1,15.9,6.3c4.3,4.2,6.5,9.5,6.5,15.7C297,306,294.8,311.2,290.5,315.4z
		 M287.3,299.7c0-3.8-1.2-7.1-3.7-9.7c-2.4-2.7-5.4-4-9-4s-6.6,1.3-9,4s-3.7,5.9-3.7,9.7s1.2,7,3.7,9.7c2.4,2.7,5.4,4,9,4
		s6.6-1.3,9-4C286.1,306.8,287.3,303.5,287.3,299.7z"/>
	<path style="fill:#FF7058;" d="M334.5,282.4c3,2.5,4.5,6.5,4.5,11.7c0,5.3-1.5,9.1-4.6,11.6c-3.1,2.4-7.8,3.7-14.1,3.7h-5.7v11.9
		h-9.5v-42.7h15.1C326.7,278.6,331.5,279.9,334.5,282.4z M327.5,299.2c1.1-1.3,1.7-3.2,1.7-5.6c0-2.5-0.7-4.2-2.2-5.2
		s-3.8-1.6-6.9-1.6h-5.4v14.4h6.4C324.2,301.2,326.3,300.5,327.5,299.2z"/>
</g>
<g>
</g>
<g>
</g>
<g>
</g>
<g>
</g>
<g>
</g>
<g>
</g>
<g>
</g>
<g>
</g>
<g>
</g>
<g>
</g>
<g>
</g>
<g>
</g>
<g>
</g>
<g>
</g>
<g>
</g>
</svg>
