<?xml version="1.0" encoding="iso-8859-1"?>
<!-- Generator: Adobe Illustrator 19.0.0, SVG Export Plug-In . SVG Version: 6.00 Build 0)  -->
<svg version="1.1" id="Layer_1" xmlns="http://www.w3.org/2000/svg" xmlns:xlink="http://www.w3.org/1999/xlink" x="0px" y="0px"
	 viewBox="0 0 512 512" style="enable-background:new 0 0 512 512;" xml:space="preserve">
<path style="fill:#8AE4FF;" d="M384.903,10.323H127.097c-23.303,0-42.194,18.89-42.194,42.194v367.613h342.194V52.516
	C427.097,29.213,408.206,10.323,384.903,10.323z"/>
<path style="fill:#FFFFFF;" d="M84.903,420.129v39.355c0,23.303,18.89,42.194,42.194,42.194h257.806
	c23.303,0,42.194-18.89,42.194-42.194v-39.355H84.903z"/>
<circle style="fill:#ABABAB;" cx="256" cy="460.387" r="15.484"/>
<path d="M74.581,459.484c0,28.958,23.558,52.516,52.516,52.516h257.806c28.958,0,52.516-23.558,52.516-52.516V52.516
	C437.419,23.558,413.861,0,384.903,0H127.097C98.139,0,74.581,23.558,74.581,52.516V459.484z M95.226,52.516
	c0-17.573,14.298-31.871,31.871-31.871h257.806c17.573,0,31.871,14.298,31.871,31.871v357.29H95.226V52.516z M416.774,459.484
	c0,17.573-14.298,31.871-31.871,31.871H127.097c-17.573,0-31.871-14.298-31.871-31.871v-29.032h321.548V459.484z"/>
<path d="M256,486.194c14.23,0,25.806-11.577,25.806-25.806S270.23,434.581,256,434.581c-14.23,0-25.806,11.577-25.806,25.806
	S241.77,486.194,256,486.194z M256,455.226c2.846,0,5.161,2.315,5.161,5.161s-2.315,5.161-5.161,5.161
	c-2.846,0-5.161-2.315-5.161-5.161S253.154,455.226,256,455.226z"/>
<path d="M117.419,249.806c-5.701,0-10.323,4.621-10.323,10.323v126.968c0,5.701,4.621,10.323,10.323,10.323
	s10.323-4.621,10.323-10.323V260.129C127.742,254.428,123.121,249.806,117.419,249.806z"/>
<path d="M117.419,207.484c-5.701,0-10.323,4.621-10.323,10.323v10.323c0,5.701,4.621,10.323,10.323,10.323
	s10.323-4.621,10.323-10.323v-10.323C127.742,212.105,123.121,207.484,117.419,207.484z"/>
<g>
</g>
<g>
</g>
<g>
</g>
<g>
</g>
<g>
</g>
<g>
</g>
<g>
</g>
<g>
</g>
<g>
</g>
<g>
</g>
<g>
</g>
<g>
</g>
<g>
</g>
<g>
</g>
<g>
</g>
</svg>
